<?xml version="1.0" encoding="UTF-8"?>
<svg version="1.1" xmlns="http://www.w3.org/2000/svg" width="612" height="408">
<path d="M0 0 C-0.33 2.97 -0.66 5.94 -1 9 C-5.87677905 8.48665484 -9.96204344 6.92144643 -14.4375 5.03515625 C-19.72188764 2.90045697 -24.41831873 1.66906515 -30.125 1.25 C-31.32382812 1.15203125 -32.52265625 1.0540625 -33.7578125 0.953125 C-37.81095931 0.89142377 -37.81095931 0.89142377 -41 3 C-41.33 5.64 -41.66 8.28 -42 11 C-14.28 11.33 13.44 11.66 42 12 C42 14.97 42 17.94 42 21 C40.68 21 39.36 21 38 21 C38.00523682 22.145896 38.01047363 23.29179199 38.01586914 24.47241211 C38.03391717 28.70840682 38.04543128 32.94439812 38.05493164 37.18041992 C38.05997231 39.01668875 38.06680477 40.85295354 38.07543945 42.68920898 C38.08751672 45.32276401 38.09323081 47.95626616 38.09765625 50.58984375 C38.10281754 51.41588608 38.10797882 52.24192841 38.11329651 53.09300232 C38.11349205 55.06236368 38.06204152 57.03161614 38 59 C37 60 37 60 34.71484375 60.09765625 C33.79832031 60.08605469 32.88179688 60.07445312 31.9375 60.0625 C30.55884766 60.04896484 30.55884766 60.04896484 29.15234375 60.03515625 C28.08693359 60.01775391 28.08693359 60.01775391 27 60 C26.45627049 56.94152152 26 54.11227195 26 51 C25.195625 51.7425 24.39125 52.485 23.5625 53.25 C19.78717071 56.42779516 15.55184084 58.18937887 11 60 C7.6796875 54.921875 7.6796875 54.921875 7 53 C7.80209473 49.84672683 8.99756159 49.00163145 11.71484375 47.18359375 C12.77832031 46.60738281 13.84179688 46.03117187 14.9375 45.4375 C19.89218505 42.76679551 19.89218505 42.76679551 24 39 C20.99686252 37.49843126 18.20932478 37.90718796 14.875 37.9375 C13.59367187 37.94652344 12.31234375 37.95554688 10.9921875 37.96484375 C10.00476563 37.97644531 9.01734375 37.98804688 8 38 C5 32.375 5 32.375 5 29 C11.86302088 25.91661381 16.8196489 25.77395542 24 28 C24.66 28.33 25.32 28.66 26 29 C26.33 26.36 26.66 23.72 27 21 C18.75 21 10.5 21 2 21 C2 33.87 2 46.74 2 60 C-1.63 60 -5.26 60 -9 60 C-9 54.06 -9 48.12 -9 42 C-12.3 42 -15.6 42 -19 42 C-19.12375 42.94875 -19.2475 43.8975 -19.375 44.875 C-20 48 -20 48 -22 50 C-26.67601163 50.45993557 -28.91318937 50.67058528 -32.9375 48.1875 C-35.67268412 45.28654714 -35.96718752 43.45937478 -36.25 39.5 C-36 36 -36 36 -34.625 34.0625 C-33 33 -33 33 -31 33 C-31 29.04 -31 25.08 -31 21 C-34.63 21 -38.26 21 -42 21 C-42 33.54 -42 46.08 -42 59 C-45.63 59 -49.26 59 -53 59 C-54 58 -54 58 -54.11352539 54.48999023 C-54.11336626 52.92951578 -54.10767142 51.36903607 -54.09765625 49.80859375 C-54.0962413 48.98875504 -54.09482635 48.16891632 -54.09336853 47.32423401 C-54.08775289 44.69528618 -54.07519779 42.06642227 -54.0625 39.4375 C-54.05748701 37.65950643 -54.05292376 35.88151154 -54.04882812 34.10351562 C-54.03777839 29.73564455 -54.02050331 25.36783652 -54 21 C-55.65 21 -57.3 21 -59 21 C-59.9097643 17.92954549 -60.17299981 15.20049657 -60 12 C-59 11 -59 11 -56.4375 10.9375 C-55.2309375 10.9684375 -55.2309375 10.9684375 -54 11 C-54.061875 10.030625 -54.12375 9.06125 -54.1875 8.0625 C-54.15903172 3.39370185 -53.16648235 -0.85158751 -51 -5 C-36.48443377 -17.09630519 -14.57579289 -7.25701553 0 0 Z M-19 21 C-19 24.96 -19 28.92 -19 33 C-15.7 33 -12.4 33 -9 33 C-9 29.04 -9 25.08 -9 21 C-12.3 21 -15.6 21 -19 21 Z " fill="#28436B" transform="translate(392,160)"/>
<path d="M0 0 C1.22596039 3.67788118 0.84310077 4.78449613 0 9 C-3.96 9.33 -7.92 9.66 -12 10 C-11.649375 11.299375 -11.29875 12.59875 -10.9375 13.9375 C-10.33984375 16.15234375 -10.33984375 16.15234375 -10 18 C-10.495 18.495 -10.495 18.495 -11 19 C-7.04 19.33 -3.08 19.66 1 20 C1 22.97 1 25.94 1 29 C-0.32 29 -1.64 29 -3 29 C-3 41.87 -3 54.74 -3 68 C-6.96 68 -10.92 68 -15 68 C-15 60.41 -15 52.82 -15 45 C-16.98 45.33 -18.96 45.66 -21 46 C-20.88140625 46.58007812 -20.7628125 47.16015625 -20.640625 47.7578125 C-19.92826229 52.07473051 -19.67964329 54.33464375 -21.625 58.375 C-26.00948251 63.22100698 -29.87301787 64.64627457 -36.296875 65.13671875 C-41.57501393 64.86976086 -46.86833948 62.95907532 -50.78515625 59.359375 C-51.18605469 58.91078125 -51.58695312 58.4621875 -52 58 C-51.34 56.35 -50.68 54.7 -50 53 C-49.34 53 -48.68 53 -48 53 C-47.67 52.01 -47.34 51.02 -47 50 C-45.68 50.33 -44.36 50.66 -43 51 C-43 51.66 -43 52.32 -43 53 C-39.33694766 53.74926071 -36.57644848 54.2380014 -33 53 C-33.495 50.03 -33.495 50.03 -34 47 C-36.97 46.01 -39.94 45.02 -43 44 C-43 41.36 -43 38.72 -43 36 C-39.75201257 34.91733752 -37.64103173 34.96563814 -34.23828125 35.12109375 C-32.56088867 35.19360352 -32.56088867 35.19360352 -30.84960938 35.26757812 C-29.68236328 35.32365234 -28.51511719 35.37972656 -27.3125 35.4375 C-26.13365234 35.48970703 -24.95480469 35.54191406 -23.74023438 35.59570312 C-20.82655906 35.72546194 -17.91321922 35.86043132 -15 36 C-15 33.69 -15 31.38 -15 29 C-27.87 29 -40.74 29 -54 29 C-53.96039654 41.46083695 -53.96039654 41.46083695 -53.90991211 53.92163086 C-53.90699295 55.47770113 -53.90444439 57.03377216 -53.90234375 58.58984375 C-53.89722778 59.40521606 -53.89211182 60.22058838 -53.88684082 61.06066895 C-53.8865306 63.04080523 -53.93761904 65.02084654 -54 67 C-55 68 -55 68 -57.50390625 68.09765625 C-60.3359375 68.06510417 -63.16796875 68.03255208 -66 68 C-66 62.39 -66 56.78 -66 51 C-67.98 51 -69.96 51 -72 51 C-71.9175 51.86625 -71.835 52.7325 -71.75 53.625 C-72.06676868 57.90137718 -73.24745675 59.74040931 -76 63 C-82.45385478 66.89920393 -88.93156442 68.1488454 -96.34375 66.46875 C-100.97364313 65.04891611 -104.40756389 63.36066604 -108 60 C-106.55746343 56.63408134 -104.66735273 54.48952921 -102 52 C-97.25 53.875 -97.25 53.875 -95 55 C-93.29297265 55.06996014 -91.58331997 55.08440154 -89.875 55.0625 C-88.96492188 55.05347656 -88.05484375 55.04445312 -87.1171875 55.03515625 C-86.41851562 55.02355469 -85.71984375 55.01195312 -85 55 C-84.67 53.02 -84.34 51.04 -84 49 C-86.68087287 47.39147628 -88.52040267 46.92943693 -91.6875 46.5 C-92.780625 46.335 -93.87375 46.17 -95 46 C-96.53445094 42.93109813 -95.54984289 40.29905734 -95 37 C-92.36 36.34 -89.72 35.68 -87 35 C-86.67 33.35 -86.34 31.7 -86 30 C-90.61073111 28.70323188 -94.33840089 29.28890861 -99 30 C-101.0625 27.1875 -101.0625 27.1875 -103 24 C-102.67 23.01 -102.34 22.02 -102 21 C-95.82424237 17.91212119 -89.86151702 16.92446468 -83 18 C-79.1640497 19.56670904 -76.01991985 21.3567958 -73.8046875 24.92578125 C-72.52140454 28.23366112 -72.52607165 31.53139393 -73 35 C-74.5 38 -74.5 38 -76 40 C-72.7 40.33 -69.4 40.66 -66 41 C-66 37.04 -66 33.08 -66 29 C-67.65 29 -69.3 29 -71 29 C-71 26.03 -71 23.06 -71 20 C-54.17 20 -37.34 20 -20 20 C-20.99 17.69 -21.98 15.38 -23 13 C-22.84035713 8.29053548 -22.16334085 5.47682508 -19 2 C-12.64587467 -1.17706266 -6.85205417 -1.21568703 0 0 Z " fill="#18345E" transform="translate(322,151)"/>
<path d="M0 0 C1.35439668 2.70879335 1.06501451 5.00933268 1 8 C1.5775 8.28875 2.155 8.5775 2.75 8.875 C3.4925 9.24625 4.235 9.6175 5 10 C5.67933594 10.25910156 6.35867187 10.51820313 7.05859375 10.78515625 C9 12 9 12 9.86328125 14.06640625 C10.97475352 20.24232609 12.14810052 27.23326036 8.890625 32.9453125 C7.71191586 35.66461517 8.39660979 37.12622629 9 40 C9.07649781 41.61961498 9.10811681 43.24189445 9.09765625 44.86328125 C9.09282227 46.19262695 9.09282227 46.19262695 9.08789062 47.54882812 C9.07532227 48.9168457 9.07532227 48.9168457 9.0625 50.3125 C9.05798828 51.24384766 9.05347656 52.17519531 9.04882812 53.13476562 C9.03709234 55.42324373 9.02067363 57.71158808 9 60 C8.34 60 7.68 60 7 60 C4.70377299 50.64082032 2.95457519 41.26402359 1.4375 31.75 C-0.12012929 21.77506267 -0.12012929 21.77506267 -2.15234375 11.890625 C-2.84925242 8.69191055 -3.07563079 6.22180205 -3 3 C-4.66216553 3.25692627 -4.66216553 3.25692627 -6.35791016 3.51904297 C-10.5363353 4.16469818 -14.71492228 4.80930094 -18.89355469 5.45361328 C-20.68949626 5.73067756 -22.48539596 6.00801342 -24.28125 6.28564453 C-34.84597807 7.91869681 -45.41232837 9.52147187 -56 11 C-54.83222981 19.01461762 -53.47382386 26.97409688 -52 34.9375 C-50.63464745 42.31577522 -49.43293629 49.6769196 -48.4296875 57.11328125 C-47.95333119 60.31352957 -47.25954495 63.41444297 -46.5078125 66.55859375 C-45.37887248 71.98619002 -44.7344148 77.50751486 -44 83 C-34.86207683 82.08188715 -25.7958947 81.03925465 -16.75 79.4375 C-9.16955174 78.09909261 -1.69728382 77.35887658 6 77 C6 78.32 6 79.64 6 81 C5.17910889 81.11069824 4.35821777 81.22139648 3.51245117 81.33544922 C0.41273002 81.75467827 -2.6866725 82.17617631 -5.78588867 82.59912109 C-7.76523111 82.86856537 -9.74491663 83.13548552 -11.72460938 83.40234375 C-17.51112369 84.19341153 -23.26489002 85.01719831 -29 86.125 C-33.11027257 86.8995153 -36.99175044 87.21523117 -41.1875 87.125 C-42.29480469 87.10695313 -43.40210938 87.08890625 -44.54296875 87.0703125 C-45.35378906 87.04710937 -46.16460937 87.02390625 -47 87 C-47.268125 86.236875 -47.53625 85.47375 -47.8125 84.6875 C-48.78224525 82.03262193 -48.78224525 82.03262193 -50.45043945 80.60717773 C-52.27659404 78.71312139 -53.00784426 77.03742154 -53.98046875 74.59765625 C-54.33608887 73.71674316 -54.69170898 72.83583008 -55.05810547 71.92822266 C-55.43080566 70.98253418 -55.80350586 70.0368457 -56.1875 69.0625 C-56.77362061 67.60142822 -56.77362061 67.60142822 -57.37158203 66.11083984 C-58.18414664 64.08287 -58.99334811 62.05354964 -59.79931641 60.02294922 C-60.94511858 57.1381744 -62.10128495 54.25782173 -63.26171875 51.37890625 C-66.83580084 42.49827024 -66.83580084 42.49827024 -68.14355469 39.16503906 C-68.72217718 37.70231834 -69.31705896 36.24594092 -69.92675781 34.79589844 C-72.41466926 28.69023127 -72.41466926 28.69023127 -71 25 C-68.78515625 23.515625 -68.78515625 23.515625 -66.0625 22.25 C-65.16660156 21.82203125 -64.27070313 21.3940625 -63.34765625 20.953125 C-61 20 -61 20 -59 20 C-59.33 18.7625 -59.66 17.525 -60 16.25 C-60.79891159 13.25408155 -61 11.19892281 -61 8 C-50.54861658 5.65979893 -40.21389245 3.62172885 -29.56640625 2.4375 C-26.46801143 2.05741214 -23.48810836 1.5219626 -20.4375 0.875 C-13.66484239 -0.45053543 -6.87203782 -0.16693209 0 0 Z M5 15 C4.89748328 20.12583611 4.96409801 24.94997778 6 30 C6.66 30 7.32 30 8 30 C8.19392201 24.47322267 7.7479503 20.24385089 6 15 C5.67 15 5.34 15 5 15 Z M-64.5625 26 C-65.696875 26.66 -66.83125 27.32 -68 28 C-65.51463577 35.86325133 -62.45292227 43.44039125 -59.3125 51.0625 C-58.79595529 52.32215549 -58.2796773 53.58192038 -57.76367188 54.84179688 C-56.51172398 57.8956137 -55.25710616 60.94830382 -54 64 C-52.86794406 60.07283002 -53.21498405 57.05795003 -53.8125 53 C-54.06966797 51.1746875 -54.06966797 51.1746875 -54.33203125 49.3125 C-54.81848169 46.12759221 -54.81848169 46.12759221 -56.04296875 43.96484375 C-57.39872329 41.18139667 -57.35770666 38.63959351 -57.5 35.5625 C-57.69997179 31.24810853 -58.1769771 27.93273085 -60 24 C-61.74206308 24 -63.08595092 25.1409169 -64.5625 26 Z " fill="#748A9C" transform="translate(203,141)"/>
<path d="M0 0 C2.60484399 2.53574201 3.22282921 4.51774832 3.34057617 8.03417969 C3.34010316 9.66348867 3.32326986 11.29284773 3.29296875 12.921875 C3.28872391 13.78186096 3.28447906 14.64184692 3.28010559 15.52789307 C3.26334116 18.2689167 3.22569345 21.00919939 3.1875 23.75 C3.17245025 25.61066645 3.15876235 27.47134445 3.14648438 29.33203125 C3.11344499 33.8883054 3.06167833 38.44402716 3 43 C-0.96 43 -4.92 43 -9 43 C-9 35.41 -9 27.82 -9 20 C-11.97 20.495 -11.97 20.495 -15 21 C-14.88140625 21.58007812 -14.7628125 22.16015625 -14.640625 22.7578125 C-13.92826229 27.07473051 -13.67964329 29.33464375 -15.625 33.375 C-20.00948251 38.22100698 -23.87301787 39.64627457 -30.296875 40.13671875 C-35.57501393 39.86976086 -40.86833948 37.95907532 -44.78515625 34.359375 C-45.38650391 33.68648437 -45.38650391 33.68648437 -46 33 C-45.34 31.35 -44.68 29.7 -44 28 C-43.34 28 -42.68 28 -42 28 C-41.67 27.01 -41.34 26.02 -41 25 C-39.68 25.33 -38.36 25.66 -37 26 C-37 26.66 -37 27.32 -37 28 C-33.33694766 28.74926071 -30.57644848 29.2380014 -27 28 C-27.33 26.02 -27.66 24.04 -28 22 C-30.97 21.01 -33.94 20.02 -37 19 C-37 16.36 -37 13.72 -37 11 C-33.75201257 9.91733752 -31.64103173 9.96563814 -28.23828125 10.12109375 C-26.56088867 10.19360352 -26.56088867 10.19360352 -24.84960938 10.26757812 C-23.68236328 10.32365234 -22.51511719 10.37972656 -21.3125 10.4375 C-20.13365234 10.48970703 -18.95480469 10.54191406 -17.74023438 10.59570312 C-14.82655906 10.72546194 -11.91321922 10.86043132 -9 11 C-9 8.69 -9 6.38 -9 4 C-21.87 4 -34.74 4 -48 4 C-48 3.67 -48 3.34 -48 3 C-34.8 3 -21.6 3 -8 3 C-8 5.64 -8 8.28 -8 11 C-7.34 11 -6.68 11 -6 11 C-5.3185177 9.10820797 -5.3185177 9.10820797 -5 7 C-5.66 6.34 -6.32 5.68 -7 5 C-6.21625 4.731875 -5.4325 4.46375 -4.625 4.1875 C-1.71885077 3.15185568 -1.71885077 3.15185568 0 0 Z " fill="#28436B" transform="translate(316,176)"/>
<path d="M0 0 C2.81316238 1.89493682 4.20712396 3.57849671 5.4375 6.75 C5.86938796 12.19178833 5.81522476 15.24636698 2.4375 19.75 C5.7375 20.08 9.0375 20.41 12.4375 20.75 C12.4375 16.79 12.4375 12.83 12.4375 8.75 C10.7875 8.75 9.1375 8.75 7.4375 8.75 C7.4375 8.42 7.4375 8.09 7.4375 7.75 C9.4175 7.75 11.3975 7.75 13.4375 7.75 C13.4375 12.37 13.4375 16.99 13.4375 21.75 C9.1475 21.75 4.8575 21.75 0.4375 21.75 C0.1075 21.09 -0.2225 20.43 -0.5625 19.75 C-0.2325 18.76 0.0975 17.77 0.4375 16.75 C1.4275 16.75 2.4175 16.75 3.4375 16.75 C3.4375 13.12 3.4375 9.49 3.4375 5.75 C2.4475 5.42 1.4575 5.09 0.4375 4.75 C0.17066406 5.48476562 -0.09617188 6.21953125 -0.37109375 6.9765625 C-1.53732268 9.6913905 -2.88180904 11.75220444 -4.625 14.125 C-7.38034533 18.12728993 -8.35710651 20.92325288 -8.5625 25.75 C-7.5725 25.75 -6.5825 25.75 -5.5625 25.75 C-4.9025 26.41 -4.2425 27.07 -3.5625 27.75 C-2.964375 27.09 -2.36625 26.43 -1.75 25.75 C0.4375 23.75 0.4375 23.75 3.4375 23.75 C3.9325 24.74 3.9325 24.74 4.4375 25.75 C4.953125 25.275625 5.46875 24.80125 6 24.3125 C9.11742009 22.31415379 11.78771092 22.14815881 15.4375 21.75 C16.4275 21.42 17.4175 21.09 18.4375 20.75 C19.69776798 23.27053595 19.35624445 24.6042098 19 27.375 C18.89816406 28.19226563 18.79632813 29.00953125 18.69140625 29.8515625 C18.60761719 30.47804687 18.52382813 31.10453125 18.4375 31.75 C17.1175 31.42 15.7975 31.09 14.4375 30.75 C14.1075 36.03 13.7775 41.31 13.4375 46.75 C16.7375 46.75 20.0375 46.75 23.4375 46.75 C23.4375 47.08 23.4375 47.41 23.4375 47.75 C19.8075 47.75 16.1775 47.75 12.4375 47.75 C12.4375 42.14 12.4375 36.53 12.4375 30.75 C10.4575 30.75 8.4775 30.75 6.4375 30.75 C6.52 31.61625 6.6025 32.4825 6.6875 33.375 C6.37073132 37.65137718 5.19004325 39.49040931 2.4375 42.75 C-4.01635478 46.64920393 -10.49406442 47.8988454 -17.90625 46.21875 C-22.53614313 44.79891611 -25.97006389 43.11066604 -29.5625 39.75 C-28.11996343 36.38408134 -26.22985273 34.23952921 -23.5625 31.75 C-18.8125 33.625 -18.8125 33.625 -16.5625 34.75 C-14.85547265 34.81996014 -13.14581997 34.83440154 -11.4375 34.8125 C-10.52742188 34.80347656 -9.61734375 34.79445312 -8.6796875 34.78515625 C-7.98101562 34.77355469 -7.28234375 34.76195312 -6.5625 34.75 C-6.2325 32.77 -5.9025 30.79 -5.5625 28.75 C-8.24337287 27.14147628 -10.08290267 26.67943693 -13.25 26.25 C-14.343125 26.085 -15.43625 25.92 -16.5625 25.75 C-18.09695094 22.68109813 -17.11234289 20.04905734 -16.5625 16.75 C-13.9225 16.09 -11.2825 15.43 -8.5625 14.75 C-8.2325 13.1 -7.9025 11.45 -7.5625 9.75 C-12.17323111 8.45323188 -15.90090089 9.03890861 -20.5625 9.75 C-22.625 6.9375 -22.625 6.9375 -24.5625 3.75 C-24.2325 2.76 -23.9025 1.77 -23.5625 0.75 C-16.04698845 -3.00775578 -7.53399667 -4.43015412 0 0 Z " fill="#203C66" transform="translate(243.5625,171.25)"/>
<path d="M0 0 C2.125 0.9375 2.125 0.9375 4 2 C4.375 4.0625 4.375 4.0625 4 7 C2.734375 8.43359375 2.734375 8.43359375 1.125 10 C-2.06325061 13.36537564 -2.45570245 15.92965671 -2.875 20.5 C-3.41748203 25.50930211 -4.1591468 27.91850726 -8 31.25 C-13.82941158 35.57919537 -18.82345418 35.66693031 -26 35 C-30.89594362 32.72688332 -33.79186259 29.925845 -36 25 C-36.76841447 19.4819892 -37.28015913 13.82195661 -34.9296875 8.640625 C-31.5969874 4.37913962 -27.31139924 1.93671957 -22 1 C-17.00442496 0.87072449 -13.07538872 2.07081436 -9 5 C-10.38914475 9.29718953 -12.38031985 11.70687757 -15.625 14.8125 C-16.44226563 15.60269531 -17.25953125 16.39289063 -18.1015625 17.20703125 C-18.72804688 17.79871094 -19.35453125 18.39039063 -20 19 C-23.875 17.125 -23.875 17.125 -25 16 C-24.72382467 17.94074861 -24.72382467 17.94074861 -24 20 C-23.01 20.66 -22.02 21.32 -21 22 C-20.51789063 21.4225 -20.03578125 20.845 -19.5390625 20.25 C-18.90742188 19.5075 -18.27578125 18.765 -17.625 18 C-16.68527344 16.88625 -16.68527344 16.88625 -15.7265625 15.75 C-15.15679687 15.1725 -14.58703125 14.595 -14 14 C-13.34 14 -12.68 14 -12 14 C-11.7525 13.43667969 -11.505 12.87335938 -11.25 12.29296875 C-9.79087285 9.61638239 -8.03712424 7.57805177 -6 5.3125 C-5.29875 4.52488281 -4.5975 3.73726562 -3.875 2.92578125 C-2 1 -2 1 0 0 Z " fill="#489847" transform="translate(475,150)"/>
<path d="M0 0 C-0.33 2.97 -0.66 5.94 -1 9 C-5.87677905 8.48665484 -9.96204344 6.92144643 -14.4375 5.03515625 C-19.72188764 2.90045697 -24.41831873 1.66906515 -30.125 1.25 C-31.32382812 1.15203125 -32.52265625 1.0540625 -33.7578125 0.953125 C-36.92095706 0.99885721 -38.52572229 1.05165572 -41 3 C-41.69632215 4.95365445 -41.69632215 4.95365445 -41.75 7.125 C-41.8325 8.40375 -41.915 9.6825 -42 11 C-40.02 11 -38.04 11 -36 11 C-36 11.66 -36 12.32 -36 13 C-37.65 13 -39.3 13 -41 13 C-41.33 14.32 -41.66 15.64 -42 17 C-41.34 17.33 -40.68 17.66 -40 18 C-40.99 18.33 -41.98 18.66 -43 19 C-46 15.25 -46 15.25 -46 13 C-46.99 13.33 -47.98 13.66 -49 14 C-50.80502081 19.53713742 -51.37343196 24.86594472 -51.6328125 30.65625 C-51.67437469 31.44398804 -51.71593689 32.23172607 -51.75875854 33.04333496 C-51.88820733 35.52857883 -52.00678935 38.01419889 -52.125 40.5 C-52.21151786 42.1979536 -52.29875082 43.89587091 -52.38671875 45.59375 C-52.59940788 49.72879366 -52.80236164 53.86421077 -53 58 C-53.33 58 -53.66 58 -54 58 C-54 45.79 -54 33.58 -54 21 C-55.65 21 -57.3 21 -59 21 C-59.9097643 17.92954549 -60.17299981 15.20049657 -60 12 C-59 11 -59 11 -56.4375 10.9375 C-55.2309375 10.9684375 -55.2309375 10.9684375 -54 11 C-54.061875 10.030625 -54.12375 9.06125 -54.1875 8.0625 C-54.15903172 3.39370185 -53.16648235 -0.85158751 -51 -5 C-36.48443377 -17.09630519 -14.57579289 -7.25701553 0 0 Z " fill="#26426B" transform="translate(392,160)"/>
<path d="M0 0 C1.6396875 0.23009766 1.6396875 0.23009766 3.3125 0.46484375 C8.52933947 1.11694868 13.75005734 1.34164034 19 1.5625 C19.96550781 1.60568359 20.93101562 1.64886719 21.92578125 1.69335938 C24.28374425 1.79841713 26.64179416 1.90056914 29 2 C29.495 3.485 29.495 3.485 30 5 C29.195625 5.12375 28.39125 5.2475 27.5625 5.375 C26.716875 5.58125 25.87125 5.7875 25 6 C24.67 6.66 24.34 7.32 24 8 C21.36 8 18.72 8 16 8 C16 12.62 16 17.24 16 22 C15.34 21.67 14.68 21.34 14 21 C14.01160156 20.38511719 14.02320313 19.77023438 14.03515625 19.13671875 C14.04417969 18.32847656 14.05320312 17.52023438 14.0625 16.6875 C14.07410156 15.88699219 14.08570313 15.08648437 14.09765625 14.26171875 C14.09657855 11.83138666 14.09657855 11.83138666 13 9 C11.35 9.33 9.7 9.66 8 10 C7.95101563 10.78246094 7.90203125 11.56492188 7.8515625 12.37109375 C7.77679688 13.38300781 7.70203125 14.39492187 7.625 15.4375 C7.55539062 16.44683594 7.48578125 17.45617187 7.4140625 18.49609375 C7.27742188 19.32238281 7.14078125 20.14867187 7 21 C6.34 21.33 5.68 21.66 5 22 C5 18.04 5 14.08 5 10 C1.37 10 -2.26 10 -6 10 C-6 22.54 -6 35.08 -6 48 C-9.63 48 -13.26 48 -17 48 C-17.2901647 12.6321473 -17.2901647 12.6321473 -13 2 C-12.01 2 -11.02 2 -10 2 C-7.8125 4.5 -7.8125 4.5 -6 7 C-5.67 5.35 -5.34 3.7 -5 2 C-3.35 2 -1.7 2 0 2 C0 1.34 0 0.68 0 0 Z " fill="#223E66" transform="translate(356,171)"/>
<path d="M0 0 C2 1 2 1 3.30078125 4.77734375 C3.55682129 5.59058105 3.81286133 6.40381836 4.07666016 7.24169922 C5.82382124 12.46100803 8.04632435 17.49515278 10.1875 22.5625 C10.65091797 23.66658203 11.11433594 24.77066406 11.59179688 25.90820312 C12.72493853 28.60671574 13.8610628 31.30392958 15 34 C15.66 34 16.32 34 17 34 C17.06058594 34.77085937 17.12117188 35.54171875 17.18359375 36.3359375 C17.30927734 37.84027344 17.30927734 37.84027344 17.4375 39.375 C17.51871094 40.37273437 17.59992188 41.37046875 17.68359375 42.3984375 C17.84965626 44.97927613 17.84965626 44.97927613 19 47 C19 46.01 19 45.02 19 44 C19.66 44 20.32 44 21 44 C21.66 43.34 22.32 42.68 23 42 C23.66 46.62 24.32 51.24 25 56 C34.13792317 55.08188715 43.2041053 54.03925465 52.25 52.4375 C59.83044826 51.09909261 67.30271618 50.35887658 75 50 C75 51.32 75 52.64 75 54 C74.17910889 54.11069824 73.35821777 54.22139648 72.51245117 54.33544922 C69.41273002 54.75467827 66.3133275 55.17617631 63.21411133 55.59912109 C61.23476889 55.86856537 59.25508337 56.13548552 57.27539062 56.40234375 C51.48887631 57.19341153 45.73510998 58.01719831 40 59.125 C35.88972743 59.8995153 32.00824956 60.21523117 27.8125 60.125 C26.70519531 60.10695312 25.59789062 60.08890625 24.45703125 60.0703125 C23.24080078 60.03550781 23.24080078 60.03550781 22 60 C21.731875 59.236875 21.46375 58.47375 21.1875 57.6875 C20.21775475 55.03262193 20.21775475 55.03262193 18.54956055 53.60717773 C16.72340596 51.71312139 15.99215574 50.03742154 15.01953125 47.59765625 C14.66383057 46.71650146 14.30812988 45.83534668 13.94165039 44.92749023 C13.56903076 43.98204346 13.19641113 43.03659668 12.8125 42.0625 C12.42247803 41.09062744 12.03245605 40.11875488 11.63061523 39.11743164 C10.41361514 36.08095372 9.20682494 33.04053381 8 30 C7.23528732 28.09078016 6.46969278 26.18191325 5.703125 24.2734375 C2.38283834 16.00201531 2.38283834 16.00201531 0.77392578 11.92138672 C0.12430425 10.30860394 -0.57479894 8.71587472 -1.28515625 7.12890625 C-2 5 -2 5 -1 2 C-0.67 1.34 -0.34 0.68 0 0 Z " fill="#8B9EB0" transform="translate(134,168)"/>
<path d="M0 0 C2.81316238 1.89493682 4.20712396 3.57849671 5.4375 6.75 C5.86938796 12.19178833 5.81522476 15.24636698 2.4375 19.75 C5.7375 20.08 9.0375 20.41 12.4375 20.75 C12.4375 16.79 12.4375 12.83 12.4375 8.75 C10.7875 8.75 9.1375 8.75 7.4375 8.75 C7.4375 8.42 7.4375 8.09 7.4375 7.75 C9.4175 7.75 11.3975 7.75 13.4375 7.75 C13.4375 12.37 13.4375 16.99 13.4375 21.75 C9.1475 21.75 4.8575 21.75 0.4375 21.75 C0.1075 21.09 -0.2225 20.43 -0.5625 19.75 C-0.2325 18.76 0.0975 17.77 0.4375 16.75 C1.4275 16.75 2.4175 16.75 3.4375 16.75 C3.4375 13.12 3.4375 9.49 3.4375 5.75 C2.4475 5.42 1.4575 5.09 0.4375 4.75 C0.17066406 5.48476562 -0.09617188 6.21953125 -0.37109375 6.9765625 C-1.53732268 9.6913905 -2.88180904 11.75220444 -4.625 14.125 C-7.38034533 18.12728993 -8.35710651 20.92325288 -8.5625 25.75 C-7.5725 25.75 -6.5825 25.75 -5.5625 25.75 C-4.20810332 28.45879335 -4.49748549 30.75933268 -4.5625 33.75 C-5.2225 33.42 -5.8825 33.09 -6.5625 32.75 C-6.2325 31.43 -5.9025 30.11 -5.5625 28.75 C-8.24337287 27.14147628 -10.08290267 26.67943693 -13.25 26.25 C-14.343125 26.085 -15.43625 25.92 -16.5625 25.75 C-18.09695094 22.68109813 -17.11234289 20.04905734 -16.5625 16.75 C-13.9225 16.09 -11.2825 15.43 -8.5625 14.75 C-8.2325 13.1 -7.9025 11.45 -7.5625 9.75 C-12.17323111 8.45323188 -15.90090089 9.03890861 -20.5625 9.75 C-22.625 6.9375 -22.625 6.9375 -24.5625 3.75 C-24.2325 2.76 -23.9025 1.77 -23.5625 0.75 C-16.04698845 -3.00775578 -7.53399667 -4.43015412 0 0 Z " fill="#2D4568" transform="translate(243.5625,171.25)"/>
<path d="M0 0 C1.22596039 3.67788118 0.84310077 4.78449613 0 9 C-3.96 9.33 -7.92 9.66 -12 10 C-11.649375 11.299375 -11.29875 12.59875 -10.9375 13.9375 C-10.33984375 16.15234375 -10.33984375 16.15234375 -10 18 C-10.495 18.495 -10.495 18.495 -11 19 C-7.04 19.33 -3.08 19.66 1 20 C1 22.97 1 25.94 1 29 C0.67 29 0.34 29 0 29 C0 26.36 0 23.72 0 21 C-23.43 21 -46.86 21 -71 21 C-71 20.67 -71 20.34 -71 20 C-54.17 20 -37.34 20 -20 20 C-20.99 17.69 -21.98 15.38 -23 13 C-22.84035713 8.29053548 -22.16334085 5.47682508 -19 2 C-12.64587467 -1.17706266 -6.85205417 -1.21568703 0 0 Z " fill="#2A446C" transform="translate(322,151)"/>
<path d="M0 0 C0.99 0.33 1.98 0.66 3 1 C3 1.66 3 2.32 3 3 C5.475 3.495 5.475 3.495 8 4 C7.01 4.495 7.01 4.495 6 5 C6 8.96 6 12.92 6 17 C7.98 17 9.96 17 12 17 C12 17.66 12 18.32 12 19 C10.35 19 8.7 19 7 19 C6.67 20.32 6.34 21.64 6 23 C6.66 23.33 7.32 23.66 8 24 C7.01 24.33 6.02 24.66 5 25 C2 21.25 2 21.25 2 19 C1.01 19.33 0.02 19.66 -1 20 C-2.80502081 25.53713742 -3.37343196 30.86594472 -3.6328125 36.65625 C-3.67437469 37.44398804 -3.71593689 38.23172607 -3.75875854 39.04333496 C-3.88820733 41.52857883 -4.00678935 44.01419889 -4.125 46.5 C-4.21151786 48.1979536 -4.29875082 49.89587091 -4.38671875 51.59375 C-4.59940788 55.72879366 -4.80236164 59.86421077 -5 64 C-5.33 64 -5.66 64 -6 64 C-6 51.79 -6 39.58 -6 27 C-7.65 27 -9.3 27 -11 27 C-11.9097643 23.92954549 -12.17299981 21.20049657 -12 18 C-11 17 -11 17 -8.4375 16.9375 C-7.2309375 16.9684375 -7.2309375 16.9684375 -6 17 C-6 14.69 -6 12.38 -6 10 C-5.34 10 -4.68 10 -4 10 C-4 10.66 -4 11.32 -4 12 C-1.47636012 11.37466625 -1.47636012 11.37466625 1 10 C1.99077298 7.54713404 1.99077298 7.54713404 2 5 C1.67 4.34 1.34 3.68 1 3 C0.01 3.495 0.01 3.495 -1 4 C-0.67 2.68 -0.34 1.36 0 0 Z M8 3 C10 4 10 4 10 4 Z " fill="#375178" transform="translate(344,154)"/>
<path d="M0 0 C6.89399103 0.94008969 6.89399103 0.94008969 10 3 C12.46806732 8.90772676 12.48802426 15.83189943 11 22 C10.63390625 22.64195312 10.2678125 23.28390625 9.890625 23.9453125 C8.71191586 26.66461517 9.39660979 28.12622629 10 31 C10.07649781 32.61961498 10.10811681 34.24189445 10.09765625 35.86328125 C10.09443359 36.74951172 10.09121094 37.63574219 10.08789062 38.54882812 C10.07951172 39.46083984 10.07113281 40.37285156 10.0625 41.3125 C10.05798828 42.24384766 10.05347656 43.17519531 10.04882812 44.13476562 C10.03709234 46.42324373 10.02067363 48.71158808 10 51 C9.34 51 8.68 51 8 51 C5.71394422 41.61832909 3.89274483 32.21193637 2.3125 22.6875 C2.08548223 21.3691069 1.8582693 20.05074739 1.63085938 18.73242188 C0.57472696 12.41167805 -0.30061314 6.41037218 0 0 Z M6 6 C5.89748328 11.12583611 5.96409801 15.94997778 7 21 C7.66 21 8.32 21 9 21 C9.19392201 15.47322267 8.7479503 11.24385089 7 6 C6.67 6 6.34 6 6 6 Z " fill="#5D7995" transform="translate(202,150)"/>
<path d="M0 0 C2.55040714 0.85013571 3.65294576 1.53147678 5.25 3.6875 C6.31670917 6.97651994 6.3679951 9.56537906 6 13 C4.13291495 15.36497439 2.67938569 16.66030715 0 18 C-4.29322859 18.48602588 -6.32082639 18.46241608 -9.9375 16 C-12.79117716 11.84919686 -12.7099846 9.9698922 -12 5 C-8.47401301 0.41621691 -5.65729638 -0.33943778 0 0 Z " fill="#4B944B" transform="translate(165,155)"/>
<path d="M0 0 C1.6396875 0.23009766 1.6396875 0.23009766 3.3125 0.46484375 C8.52933947 1.11694868 13.75005734 1.34164034 19 1.5625 C19.96550781 1.60568359 20.93101562 1.64886719 21.92578125 1.69335938 C24.28374425 1.79841713 26.64179416 1.90056914 29 2 C29.495 3.485 29.495 3.485 30 5 C29.195625 5.12375 28.39125 5.2475 27.5625 5.375 C26.716875 5.58125 25.87125 5.7875 25 6 C24.67 6.66 24.34 7.32 24 8 C21.36 8 18.72 8 16 8 C16 12.62 16 17.24 16 22 C15.34 21.67 14.68 21.34 14 21 C14.01160156 20.38511719 14.02320313 19.77023438 14.03515625 19.13671875 C14.04417969 18.32847656 14.05320312 17.52023438 14.0625 16.6875 C14.07410156 15.88699219 14.08570313 15.08648437 14.09765625 14.26171875 C14.09657855 11.83138666 14.09657855 11.83138666 13 9 C11.35 9.33 9.7 9.66 8 10 C7.95101563 10.78246094 7.90203125 11.56492188 7.8515625 12.37109375 C7.77679688 13.38300781 7.70203125 14.39492187 7.625 15.4375 C7.55539062 16.44683594 7.48578125 17.45617187 7.4140625 18.49609375 C7.27742188 19.32238281 7.14078125 20.14867187 7 21 C6.34 21.33 5.68 21.66 5 22 C5 17.38 5 12.76 5 8 C1.37 8 -2.26 8 -6 8 C-5.67 6.02 -5.34 4.04 -5 2 C-3.35 2 -1.7 2 0 2 C0 1.34 0 0.68 0 0 Z " fill="#153260" transform="translate(356,171)"/>
<path d="M0 0 C2.125 0.9375 2.125 0.9375 4 2 C4.375 4.0625 4.375 4.0625 4 7 C2.734375 8.43359375 2.734375 8.43359375 1.125 10 C-2.05240737 13.36214036 -2.51252665 16.00410557 -3 20.5625 C-3.48220096 25.01516421 -3.87514295 27.63822103 -7.125 30.8125 C-8.548125 31.8953125 -8.548125 31.8953125 -10 33 C-10.66 32.67 -11.32 32.34 -12 32 C-11.67 31.01 -11.34 30.02 -11 29 C-10.34 28.67 -9.68 28.34 -9 28 C-8.34227572 24.97065509 -8.34227572 24.97065509 -8 22 C-8.99 21.67 -9.98 21.34 -11 21 C-11 20.34 -11 19.68 -11 19 C-12.98 19.99 -12.98 19.99 -15 21 C-14.67 19.68 -14.34 18.36 -14 17 C-14.66 16.67 -15.32 16.34 -16 16 C-15.38125 15.7525 -14.7625 15.505 -14.125 15.25 C-11.8960525 14.20003049 -11.8960525 14.20003049 -11.1171875 12.21484375 C-9.75619911 9.51666048 -8.01852053 7.55736199 -6 5.3125 C-5.29875 4.52488281 -4.5975 3.73726562 -3.875 2.92578125 C-2 1 -2 1 0 0 Z " fill="#549A53" transform="translate(475,150)"/>
<path d="M0 0 C1.65439171 2.97790508 2.38550003 5.66177043 3 9 C12.13792317 8.08188715 21.2041053 7.03925465 30.25 5.4375 C37.83044826 4.09909261 45.30271618 3.35887658 53 3 C53 4.32 53 5.64 53 7 C51.76866333 7.16604736 51.76866333 7.16604736 50.51245117 7.33544922 C47.41273002 7.75467827 44.3133275 8.17617631 41.21411133 8.59912109 C39.23476889 8.86856537 37.25508337 9.13548552 35.27539062 9.40234375 C29.48887631 10.19341153 23.73510998 11.01719831 18 12.125 C13.88972743 12.8995153 10.00824956 13.21523117 5.8125 13.125 C4.15154297 13.09792969 4.15154297 13.09792969 2.45703125 13.0703125 C1.64621094 13.04710937 0.83539063 13.02390625 0 13 C-1.17904475 8.75169592 -2.0326419 4.0652838 0 0 Z " fill="#8096A9" transform="translate(156,215)"/>
<path d="M0 0 C0.66 0 1.32 0 2 0 C2 0.99 2 1.98 2 3 C2.99 2.67 3.98 2.34 5 2 C6.5 3.125 6.5 3.125 8 5 C8.1875 8.1875 8.1875 8.1875 8 11 C7.01 11.33 6.02 11.66 5 12 C4.67 13.65 4.34 15.3 4 17 C2.58376784 17.05447047 1.16691809 17.09300508 -0.25 17.125 C-1.43335938 17.15980469 -1.43335938 17.15980469 -2.640625 17.1953125 C-5.21228208 16.98242698 -6.72835336 16.1552391 -9 15 C-9.99 15.495 -9.99 15.495 -11 16 C-11.66 13.69 -12.32 11.38 -13 9 C-9.52311757 6.88903567 -9.52311757 6.88903567 -6.9375 7.4375 C-6.298125 7.623125 -5.65875 7.80875 -5 8 C-4.01 7.67 -3.02 7.34 -2 7 C-2.04125 6.21625 -2.0825 5.4325 -2.125 4.625 C-2 2 -2 2 0 0 Z " fill="#469445" transform="translate(459,167)"/>
<path d="M0 0 C0 1.32 0 2.64 0 4 C-10.87260756 6.12291641 -21.72864898 8.13743344 -32.75 9.3125 C-33.55284424 9.40063965 -34.35568848 9.4887793 -35.18286133 9.57958984 C-40.74237529 10.12881235 -40.74237529 10.12881235 -43 9 C-42.45239258 7.09057617 -42.45239258 7.09057617 -41 5 C-38.49756539 4.2932877 -36.3178793 3.86518898 -33.76171875 3.55078125 C-32.68504692 3.39635811 -32.68504692 3.39635811 -31.58662415 3.23881531 C-29.28891999 2.91297734 -26.98873686 2.61226417 -24.6875 2.3125 C-23.14885389 2.09999949 -21.61043786 1.8858258 -20.07226562 1.66992188 C-17.89774862 1.36488446 -15.72323039 1.06227753 -13.54655457 0.77302551 C-10.73627033 0.39859076 -7.97747797 -0.00507125 -5.21020508 -0.62817383 C-3 -1 -3 -1 0 0 Z " fill="#758AA2" transform="translate(200,173)"/>
<path d="M0 0 C0.99 0.7115625 0.99 0.7115625 2 1.4375 C0.61085525 5.73468953 -1.38031985 8.14437757 -4.625 11.25 C-5.44226563 12.04019531 -6.25953125 12.83039063 -7.1015625 13.64453125 C-7.72804688 14.23621094 -8.35453125 14.82789063 -9 15.4375 C-10.32 14.7775 -11.64 14.1175 -13 13.4375 C-12.01 13.1075 -11.02 12.7775 -10 12.4375 C-10 11.7775 -10 11.1175 -10 10.4375 C-8.68 10.4375 -7.36 10.4375 -6 10.4375 C-6 9.4475 -6 8.4575 -6 7.4375 C-4.5 5.75 -4.5 5.75 -3 4.4375 C-3.99 3.4475 -4.98 2.4575 -6 1.4375 C-6.33 2.4275 -6.66 3.4175 -7 4.4375 C-8.65 4.4375 -10.3 4.4375 -12 4.4375 C-12.33 3.7775 -12.66 3.1175 -13 2.4375 C-16.94237425 3.75162475 -19.64368827 4.9466678 -22 8.4375 C-22.71464615 14.12489227 -21.97649369 19.82266126 -21 25.4375 C-23.87762289 23.12737644 -24.91059692 21.91412289 -25.6015625 18.23046875 C-25.67268448 7.28953816 -25.67268448 7.28953816 -22.5 3.25 C-15.89820229 -2.8713852 -8.0812536 -4.20898625 0 0 Z M-15 3.4375 C-14.01 4.9225 -14.01 4.9225 -13 6.4375 C-13.66 6.4375 -14.32 6.4375 -15 6.4375 C-15 5.4475 -15 4.4575 -15 3.4375 Z " fill="#569755" transform="translate(464,153.5625)"/>
<path d="M0 0 C0.69287109 0.00451172 1.38574219 0.00902344 2.09960938 0.01367188 C3.79561068 0.02536844 5.49156703 0.04330076 7.1875 0.0625 C8.54189668 2.77129335 8.25251451 5.07183268 8.1875 8.0625 C9.1775 8.3925 10.1675 8.7225 11.1875 9.0625 C10.56875 9.165625 9.95 9.26875 9.3125 9.375 C6.82223516 9.93775373 6.82223516 9.93775373 5.1875 13.0625 C4.8575 9.7625 4.5275 6.4625 4.1875 3.0625 C3.2495459 3.21396484 2.3115918 3.36542969 1.34521484 3.52148438 C-2.15420701 4.0843012 -5.65424803 4.6429096 -9.15478516 5.19873047 C-10.66611983 5.43957418 -12.17719315 5.6820642 -13.68798828 5.92626953 C-15.86683638 6.27815996 -18.04657365 6.62400612 -20.2265625 6.96875 C-21.23005234 7.13280334 -21.23005234 7.13280334 -22.2538147 7.3001709 C-28.73002661 8.31279531 -33.6488307 8.4105645 -39.8125 6.0625 C-39.8125 5.7325 -39.8125 5.4025 -39.8125 5.0625 C-38.62491089 4.88859741 -38.62491089 4.88859741 -37.41333008 4.71118164 C-33.81702221 4.18379344 -30.22100965 3.65441762 -26.625 3.125 C-25.37912109 2.94259766 -24.13324219 2.76019531 -22.84960938 2.57226562 C-21.64755859 2.39501953 -20.44550781 2.21777344 -19.20703125 2.03515625 C-18.10206299 1.87281494 -16.99709473 1.71047363 -15.85864258 1.54321289 C-13.94785033 1.24167006 -12.04226181 0.90212783 -10.1484375 0.5078125 C-6.77348808 -0.13557251 -3.42051953 -0.04255192 0 0 Z " fill="#8096A7" transform="translate(195.8125,140.9375)"/>
<path d="M0 0 C0 0.99 0 1.98 0 3 C-12.71826896 5.8543088 -24.96246706 7.68508375 -38 8 C-38 7.01 -38 6.02 -38 5 C-31.5808218 2.70627622 -25.15937898 1.80027744 -18.4375 0.8125 C-17.21869141 0.62236328 -15.99988281 0.43222656 -14.74414062 0.23632812 C-13.56916016 0.06166016 -12.39417969 -0.11300781 -11.18359375 -0.29296875 C-10.11681396 -0.4530542 -9.05003418 -0.61313965 -7.95092773 -0.77807617 C-5.04868347 -0.99633877 -2.80481784 -0.72218308 0 0 Z " fill="#8D9EB2" transform="translate(199,190)"/>
<path d="M0 0 C0 1.32 0 2.64 0 4 C-8.86844399 5.88690298 -17.65969168 7.45624848 -26.66015625 8.5703125 C-28.88526811 8.8565842 -31.10318549 9.20578903 -33.30859375 9.6171875 C-36 10 -36 10 -38 9 C-37.67 7.68 -37.34 6.36 -37 5 C-30.11128861 3.5519951 -23.21889409 2.36335256 -16.25 1.375 C-14.89068359 1.17390625 -14.89068359 1.17390625 -13.50390625 0.96875 C-8.96269168 0.31905799 -4.60181813 -0.16761589 0 0 Z " fill="#8599AF" transform="translate(200,197)"/>
<path d="M0 0 C0 1.32 0 2.64 0 4 C-10.95686437 6.42408504 -21.83708551 7.91311829 -33 9 C-33.33 7.68 -33.66 6.36 -34 5 C-22.94989709 1.86076622 -11.52662452 -0.23195994 0 0 Z " fill="#9AA8B9" transform="translate(193,182)"/>
<path d="M0 0 C0 0.99 0 1.98 0 3 C-11.47021854 5.65105205 -23.16929588 8.23444993 -35 8 C-35 6.68 -35 5.36 -35 4 C-30.82103268 3.25804734 -26.640203 2.52804166 -22.45727539 1.80883789 C-21.03581177 1.56273133 -19.6148991 1.31341952 -18.19458008 1.06079102 C-16.14802736 0.69735766 -14.09974315 0.34565525 -12.05078125 -0.00390625 C-10.82012939 -0.21861572 -9.58947754 -0.4333252 -8.3215332 -0.65454102 C-5.20777031 -0.97839067 -2.99673719 -0.81819629 0 0 Z " fill="#8FA6B8" transform="translate(199,206)"/>
<path d="M0 0 C1.32 0.33 2.64 0.66 4 1 C4 1.66 4 2.32 4 3 C5.423125 3.37125 5.423125 3.37125 6.875 3.75 C10 5 10 5 11.5 6.875 C12 9 12 9 11.125 11.25 C10.75375 11.8275 10.3825 12.405 10 13 C11.32 13.66 12.64 14.32 14 15 C7.26503466 14.84818726 0.90404671 14.08212662 -4 9 C-4 5 -4 5 -3 3 C-2.34 3 -1.68 3 -1 3 C-0.67 2.01 -0.34 1.02 0 0 Z " fill="#364E70" transform="translate(275,201)"/>
<path d="M0 0 C-0.99 0.66 -1.98 1.32 -3 2 C-3.72382467 4.05925139 -3.72382467 4.05925139 -4 6 C-6.31 6 -8.62 6 -11 6 C-11 6.66 -11 7.32 -11 8 C-9.56208484 7.85831863 -8.1246763 7.71148957 -6.6875 7.5625 C-5.88699219 7.48128906 -5.08648437 7.40007812 -4.26171875 7.31640625 C-1.83912821 7.04734307 -1.83912821 7.04734307 1 6 C1 6.66 1 7.32 1 8 C1.66 8.66 2.32 9.32 3 10 C2.01 10.33 1.02 10.66 0 11 C-0.66 10.67 -1.32 10.34 -2 10 C-4.37402501 9.92883618 -6.75000677 9.91590915 -9.125 9.9375 C-10.40632813 9.94652344 -11.68765625 9.95554688 -13.0078125 9.96484375 C-13.99523437 9.97644531 -14.98265625 9.98804688 -16 10 C-19 4.375 -19 4.375 -19 1 C-12.0833944 -2.10746049 -7.24710019 -2.10302072 0 0 Z " fill="#465D7F" transform="translate(416,188)"/>
<path d="M0 0 C0.33 0 0.66 0 1 0 C1 12.87 1 25.74 1 39 C-1.97 39 -4.94 39 -8 39 C-8 36.03 -8 33.06 -8 30 C-6.02 29.67 -4.04 29.34 -2 29 C-1.96241577 27.84213989 -1.96241577 27.84213989 -1.92407227 26.66088867 C-1.80815993 23.16958819 -1.68541176 19.67856078 -1.5625 16.1875 C-1.52318359 14.97255859 -1.48386719 13.75761719 -1.44335938 12.50585938 C-1.40146484 11.34248047 -1.35957031 10.17910156 -1.31640625 8.98046875 C-1.26141968 7.37014771 -1.26141968 7.37014771 -1.20532227 5.72729492 C-1 3 -1 3 0 0 Z " fill="#132E54" transform="translate(428,180)"/>
<path d="M0 0 C6.89399103 0.94008969 6.89399103 0.94008969 10 3 C12.57647909 9.16722824 12.03832416 15.56239023 11 22 C10.34 21.67 9.68 21.34 9 21 C8.3671875 18.05859375 8.3671875 18.05859375 7.875 14.4375 C7.70742187 13.23996094 7.53984375 12.04242188 7.3671875 10.80859375 C7.24601563 9.88175781 7.12484375 8.95492187 7 8 C6.67 8.99 6.34 9.98 6 11 C5.01 11 4.02 11 3 11 C3 14.3 3 17.6 3 21 C2.67 21 2.34 21 2 21 C0.79556805 13.94546999 -0.28100502 7.16562789 0 0 Z " fill="#728294" transform="translate(202,150)"/>
<path d="M0 0 C3 1 3 1 4.1875 3.0625 C4.455625 3.701875 4.72375 4.34125 5 5 C3.02 5.99 3.02 5.99 1 7 C1 7.99 1 8.98 1 10 C-0.32 10 -1.64 10 -3 10 C-3 10.66 -3 11.32 -3 12 C-3.99 12 -4.98 12 -6 12 C-6.66 11.34 -7.32 10.68 -8 10 C-8.99 11.485 -8.99 11.485 -10 13 C-10.66 11.02 -11.32 9.04 -12 7 C-12 7.66 -12 8.32 -12 9 C-12.99 9.33 -13.98 9.66 -15 10 C-15.33 9.01 -15.66 8.02 -16 7 C-14.76265016 5.96386967 -13.50955363 4.94652198 -12.25 3.9375 C-11.20585937 3.08478516 -11.20585937 3.08478516 -10.140625 2.21484375 C-8 1 -8 1 -5.796875 1.25390625 C-4 2 -4 2 -3 3 C-2.01 3 -1.02 3 0 3 C0 2.01 0 1.02 0 0 Z M-8 3 C-8 3.99 -8 4.98 -8 6 C-7.34 5.67 -6.68 5.34 -6 5 C-6.66 4.34 -7.32 3.68 -8 3 Z " fill="#429241" transform="translate(457,154)"/>
<path d="M0 0 C-0.33 0.99 -0.66 1.98 -1 3 C-1.99 3.33 -2.98 3.66 -4 4 C-3.34 4.66 -2.68 5.32 -2 6 C-1.8046875 8.3828125 -1.8046875 8.3828125 -1.875 11.125 C-1.89304687 12.03507813 -1.91109375 12.94515625 -1.9296875 13.8828125 C-1.95289063 14.58148438 -1.97609375 15.28015625 -2 16 C-5.75 17.125 -5.75 17.125 -8 16 C-8 15.34 -8 14.68 -8 14 C-8.66 14 -9.32 14 -10 14 C-11.42062788 5.98971266 -11.42062788 5.98971266 -9.9375 2.5 C-6.89735748 0.14634127 -3.75694287 0 0 0 Z " fill="#223E66" transform="translate(311,152)"/>
<path d="M0 0 C0.66 0 1.32 0 2 0 C2 1.65 2 3.3 2 5 C2.66 5 3.32 5 4 5 C4 5.66 4 6.32 4 7 C6.31 7 8.62 7 11 7 C11.33 6.34 11.66 5.68 12 5 C12.495 6.485 12.495 6.485 13 8 C12.67 8.33 12.34 8.66 12 9 C15.96 9.33 19.92 9.66 24 10 C24 12.97 24 15.94 24 19 C23.67 19 23.34 19 23 19 C23 16.36 23 13.72 23 11 C-0.43 11 -23.86 11 -48 11 C-48 10.67 -48 10.34 -48 10 C-31.17 10 -14.34 10 3 10 C2.01 7.69 1.02 5.38 0 3 C0 2.01 0 1.02 0 0 Z " fill="#697990" transform="translate(299,161)"/>
<path d="M0 0 C3.63 0.33 7.26 0.66 11 1 C11 8.59 11 16.18 11 24 C14.63 24 18.26 24 22 24 C22 24.33 22 24.66 22 25 C18.04 25 14.08 25 10 25 C10 17.41 10 9.82 10 2 C8.02 2.33 6.04 2.66 4 3 C4 3.66 4 4.32 4 5 C3.0925 5.2475 2.185 5.495 1.25 5.75 C-2.04290306 6.75525569 -2.04290306 6.75525569 -4 9.0625 C-6.55860034 11.54114407 -8.51888861 11.68353533 -12 12 C-10.68 11.34 -9.36 10.68 -8 10 C-8.56739868 5.87026372 -8.56739868 5.87026372 -10 2 C-3.375 1.75 -3.375 1.75 0 4 C0 2.68 0 1.36 0 0 Z " fill="#687C98" transform="translate(297,194)"/>
<path d="M0 0 C6.84162756 -0.56594346 11.6661411 -0.3745744 17.44140625 3.515625 C20.49718346 6.42588901 20.97972725 8.7445634 21.3125 12.9375 C21.23575272 16.67020874 20.26897139 18.97470482 18 22 C21.3 22.33 24.6 22.66 28 23 C28 19.04 28 15.08 28 11 C26.35 11 24.7 11 23 11 C23 10.67 23 10.34 23 10 C24.98 10 26.96 10 29 10 C29 14.62 29 19.24 29 24 C24.71 24 20.42 24 16 24 C15.67 23.34 15.34 22.68 15 22 C15.33 21.01 15.66 20.02 16 19 C16.99 19 17.98 19 19 19 C19 15.37 19 11.74 19 8 C18.01 7.67 17.02 7.34 16 7 C15.34 8.32 14.68 9.64 14 11 C13.67 8.69 13.34 6.38 13 4 C12.01 4 11.02 4 10 4 C10 3.01 10 2.02 10 1 C6.7 1 3.4 1 0 1 C0 0.67 0 0.34 0 0 Z " fill="#8495B1" transform="translate(228,169)"/>
<path d="M0 0 C0 1.98 0 3.96 0 6 C0.99 6.33 1.98 6.66 3 7 C0.09907498 8.93395001 -0.89674737 9.30131941 -4.1875 9.625 C-5.445625 9.74875 -6.70375 9.8725 -8 10 C-10.0625 7.1875 -10.0625 7.1875 -12 4 C-11 1 -11 1 -9.375 -0.25 C-6.04805845 -1.30061312 -3.37991551 -0.64998375 0 0 Z " fill="#15335C" transform="translate(231,171)"/>
<path d="M0 0 C0.99 0 1.98 0 3 0 C3.67815954 2.66419818 4.34265777 5.33065758 5 8 C5.28617188 9.11568359 5.28617188 9.11568359 5.578125 10.25390625 C6.80747799 15.30303458 7.18894522 19.80400642 7 25 C6.01 24.67 5.02 24.34 4 24 C4.20625 24.598125 4.4125 25.19625 4.625 25.8125 C5 28 5 28 3 31 C2.94465088 30.41621582 2.88930176 29.83243164 2.83227539 29.23095703 C2.57594448 26.52894653 2.31922387 23.82697319 2.0625 21.125 C1.93198242 19.74828125 1.93198242 19.74828125 1.79882812 18.34375 C1.21733442 12.22729765 0.61727613 6.11294453 0 0 Z " fill="#5C758C" transform="translate(149,188)"/>
<path d="M0 0 C1.32 0.66 2.64 1.32 4 2 C4.375 4.0625 4.375 4.0625 4 7 C2.69921875 8.57421875 2.69921875 8.57421875 1.0625 10.25 C-2.61348546 14.16816803 -2.97624599 17.76224098 -3 23 C-3.33 23 -3.66 23 -4 23 C-4.33 18.71 -4.66 14.42 -5 10 C-5.99 9.67 -6.98 9.34 -8 9 C-8 7 -8 7 -5.6875 4.5 C-3 2 -3 2 0 0 Z " fill="#69A56B" transform="translate(475,150)"/>
<path d="M0 0 C2.97 0 5.94 0 9 0 C9.33 0.66 9.66 1.32 10 2 C10.99 2.33 11.98 2.66 13 3 C13 5.31 13 7.62 13 10 C5.71653543 9.5144357 5.71653543 9.5144357 2.5625 7.25 C0.84903155 4.78260543 0.32945919 2.9651327 0 0 Z " fill="#13315D" transform="translate(229,170)"/>
<path d="M0 0 C0.33 0 0.66 0 1 0 C1.50567729 2.56149628 2.00470132 5.12399465 2.5 7.6875 C2.64308594 8.40873047 2.78617188 9.12996094 2.93359375 9.87304688 C3.65571887 13.63841359 4.1824976 17.14473813 4 21 C3.67 19.68 3.34 18.36 3 17 C2.01 17 1.02 17 0 17 C0.16757813 17.68707031 0.33515625 18.37414062 0.5078125 19.08203125 C0.71148437 19.98308594 0.91515625 20.88414062 1.125 21.8125 C1.33382812 22.70582031 1.54265625 23.59914062 1.7578125 24.51953125 C2 27 2 27 0 30 C-0.12117187 29.03578125 -0.24234375 28.0715625 -0.3671875 27.078125 C-0.53476563 25.81484375 -0.70234375 24.5515625 -0.875 23.25 C-1.03742188 21.99703125 -1.19984375 20.7440625 -1.3671875 19.453125 C-1.91798495 16.44753893 -2.63100437 14.64672488 -4 12 C-4.24636612 9.29982731 -4.09065666 6.71969994 -4 4 C-3.67 4.99 -3.34 5.98 -3 7 C-2.34 6.67 -1.68 6.34 -1 6 C-0.34227572 2.97065509 -0.34227572 2.97065509 0 0 Z " fill="#95A5B7" transform="translate(149,171)"/>
<path d="M0 0 C8.57142857 -0.14285714 8.57142857 -0.14285714 12 1 C11.34 3.31 10.68 5.62 10 8 C9.34 7.01 8.68 6.02 8 5 C7.01 5.495 7.01 5.495 6 6 C5.67 6.99 5.34 7.98 5 9 C4.67 9.33 4.34 9.66 4 10 C3.31731862 11.32520503 2.6492959 12.65812182 2 14 C1.34 14 0.68 14 0 14 C-0.19627391 12.41773035 -0.38165538 10.83410729 -0.5625 9.25 C-0.66691406 8.36828125 -0.77132813 7.4865625 -0.87890625 6.578125 C-0.99456676 4.11567549 -0.73638695 2.33461936 0 0 Z " fill="#13325E" transform="translate(308,173)"/>
<path d="M0 0 C2.55040714 0.85013571 3.65294576 1.53147678 5.25 3.6875 C6.27095909 6.83545718 6.12632947 9.71543368 6 13 C5.67 13 5.34 13 5 13 C5 11.02 5 9.04 5 7 C3.02 7.66 1.04 8.32 -1 9 C-1.33 7.02 -1.66 5.04 -2 3 C-5.6892949 4.15236475 -5.6892949 4.15236475 -9 6 C-10.53045985 9.55892288 -10.53045985 9.55892288 -11 13 C-11.33 13 -11.66 13 -12 13 C-12.49079755 5.63803681 -12.49079755 5.63803681 -10.125 2.5625 C-6.56820046 -0.05279378 -4.41219373 -0.26473162 0 0 Z " fill="#6FA872" transform="translate(165,155)"/>
<path d="M0 0 C-0.33 1.32 -0.66 2.64 -1 4 C-11.395 4.99 -11.395 4.99 -22 6 C-22 4.68 -22 3.36 -22 2 C-14.58856436 0.57374434 -7.55137932 -0.30071865 0 0 Z " fill="#7B90A0" transform="translate(196,153)"/>
<path d="M0 0 C0 0.99 0 1.98 0 3 C-2.51943396 3.50812114 -5.04016873 4.00664534 -7.5625 4.5 C-8.26697266 4.64308594 -8.97144531 4.78617188 -9.69726562 4.93359375 C-14.21890238 5.80874925 -18.39487028 6.14523405 -23 6 C-23 3 -23 3 -22 2 C-14.65472912 0.50252662 -7.48540677 -0.2537426 0 0 Z " fill="#687F91" transform="translate(197,158)"/>
<path d="M0 0 C0.33 0.99 0.66 1.98 1 3 C1.66 3.66 2.32 4.32 3 5 C-0.12394934 5.36388175 -3.24925082 5.71444603 -6.375 6.0625 C-7.26445312 6.16626953 -8.15390625 6.27003906 -9.0703125 6.37695312 C-9.92109375 6.47041016 -10.771875 6.56386719 -11.6484375 6.66015625 C-12.43395996 6.74918213 -13.21948242 6.83820801 -14.02880859 6.92993164 C-16 7 -16 7 -18 6 C-17.3671875 4.078125 -17.3671875 4.078125 -16 2 C-13.3203125 1.171875 -13.3203125 1.171875 -10.125 0.75 C-9.07570312 0.60046875 -8.02640625 0.4509375 -6.9453125 0.296875 C-4 0 -4 0 0 0 Z " fill="#9BACBC" transform="translate(175,176)"/>
<path d="M0 0 C0.66 0.66 1.32 1.32 2 2 C1.9765625 4.1640625 1.9765625 4.1640625 1.625 6.625 C1.45871094 7.85089844 1.45871094 7.85089844 1.2890625 9.1015625 C1.14597656 10.04128906 1.14597656 10.04128906 1 11 C-0.32 10.67 -1.64 10.34 -3 10 C-3.33 15.28 -3.66 20.56 -4 26 C-0.7 26 2.6 26 6 26 C6 26.33 6 26.66 6 27 C2.37 27 -1.26 27 -5 27 C-5 21.39 -5 15.78 -5 10 C-6.98 10 -8.96 10 -11 10 C-11 11.98 -11 13.96 -11 16 C-11.33 16 -11.66 16 -12 16 C-12 13.69 -12 11.38 -12 9 C-9.36 9 -6.72 9 -4 9 C-4.33 7.68 -4.66 6.36 -5 5 C-4.01 4.67 -3.02 4.34 -2 4 C-0.79117904 1.99983534 -0.79117904 1.99983534 0 0 Z " fill="#597899" transform="translate(261,192)"/>
<path d="M0 0 C0 0.99 0 1.98 0 3 C-5.62709144 4.63697206 -11.11661046 5.83002176 -17 5 C-17.66 4.34 -18.32 3.68 -19 3 C-15.94925539 0.96617026 -14.1697702 0.45832799 -10.625 -0.1875 C-9.68914062 -0.36667969 -8.75328125 -0.54585937 -7.7890625 -0.73046875 C-4.93375519 -1.00640181 -2.76459104 -0.70874061 0 0 Z " fill="#879AAE" transform="translate(199,190)"/>
<path d="M0 0 C4.12751449 0.60698743 7.3321148 2.03810791 11 4 C10.67 6.97 10.34 9.94 10 13 C7.03 12.505 7.03 12.505 4 12 C3 9 3 9 3.9375 6.8125 C4.288125 6.214375 4.63875 5.61625 5 5 C3.35 3.35 1.7 1.7 0 0 Z " fill="#3D5471" transform="translate(381,156)"/>
<path d="M0 0 C0.66 0 1.32 0 2 0 C2.90413673 3.83724172 3.10576898 7.37502274 3.0625 11.3125 C3.05347656 12.38113281 3.04445312 13.44976562 3.03515625 14.55078125 C3.02355469 15.35902344 3.01195312 16.16726562 3 17 C2.01 17.33 1.02 17.66 0 18 C-0.99 13.05 -1.98 8.1 -3 3 C-2.01 2.67 -1.02 2.34 0 2 C0 1.34 0 0.68 0 0 Z " fill="#647E93" transform="translate(146,160)"/>
<path d="M0 0 C0.33 0.66 0.66 1.32 1 2 C-0.92576115 4.43929746 -2.80090595 6.80090595 -5 9 C-5.61204357 14.67437001 -4.97352262 20.40224495 -4 26 C-6.87762289 23.68987644 -7.91059692 22.47662289 -8.6015625 18.79296875 C-8.67262507 7.86117655 -8.67262507 7.86117655 -5.125 3.6875 C-3.43910275 2.07083041 -2.09110165 1.04555082 0 0 Z " fill="#6AA16C" transform="translate(447,153)"/>
<path d="M0 0 C4.95 0 9.9 0 15 0 C16.35439668 2.70879335 16.06501451 5.00933268 16 8 C16.99 8.33 17.98 8.66 19 9 C18.38125 9.103125 17.7625 9.20625 17.125 9.3125 C14.63473516 9.87525373 14.63473516 9.87525373 13 13 C12.67 9.7 12.34 6.4 12 3 C10.35 3 8.7 3 7 3 C7 2.67 7 2.34 7 2 C4.69 1.67 2.38 1.34 0 1 C0 0.67 0 0.34 0 0 Z " fill="#8497A9" transform="translate(188,141)"/>
<path d="M0 0 C0.99 0 1.98 0 3 0 C3.33 3.3 3.66 6.6 4 10 C4.66 10 5.32 10 6 10 C6 10.99 6 11.98 6 13 C3 15 3 15 0 15 C0 10.05 0 5.1 0 0 Z " fill="#527694" transform="translate(205,161)"/>
<path d="M0 0 C1.32 0 2.64 0 4 0 C4 2.31 4 4.62 4 7 C0.17679443 8.42258812 -2.91281305 9.24042276 -7 9 C-7.66 7.68 -8.32 6.36 -9 5 C-6 5 -6 5 -3 6 C-2.690625 5.195625 -2.38125 4.39125 -2.0625 3.5625 C-1 1 -1 1 0 0 Z " fill="#479346" transform="translate(166,162)"/>
<path d="M0 0 C1.32 0 2.64 0 4 0 C6 3 6 3 5.875 5.5625 C5 8 5 8 3.0625 9.3125 C1 10 1 10 -1 10 C-2.25 3.375 -2.25 3.375 0 0 Z " fill="#233D67" transform="translate(341,156)"/>
<path d="M0 0 C0 1.32 0 2.64 0 4 C-9.41002278 6.29612756 -9.41002278 6.29612756 -14 6 C-13.34 5.34 -12.68 4.68 -12 4 C-13.65 3.67 -15.3 3.34 -17 3 C-17 2.67 -17 2.34 -17 2 C-5.47835991 -0.29612756 -5.47835991 -0.29612756 0 0 Z " fill="#889AAB" transform="translate(200,197)"/>
<path d="M0 0 C0.86882812 -0.02578125 1.73765625 -0.0515625 2.6328125 -0.078125 C3.74269531 0.08429688 3.74269531 0.08429688 4.875 0.25 C5.535 1.24 6.195 2.23 6.875 3.25 C1.49472975 4.44088986 -3.57791384 5.5419519 -9.125 5.25 C-9.125 3.93 -9.125 2.61 -9.125 1.25 C-6.04344479 0.36136547 -3.20456404 0.05739518 0 0 Z " fill="#869FB0" transform="translate(173.125,208.75)"/>
<path d="M0 0 C1.50433594 0.01353516 1.50433594 0.01353516 3.0390625 0.02734375 C3.80992187 0.03894531 4.58078125 0.05054688 5.375 0.0625 C4.42173828 0.74119141 4.42173828 0.74119141 3.44921875 1.43359375 C1.21686745 3.18668319 0.45796385 4.48004774 -0.625 7.0625 C-0.955 7.7225 -1.285 8.3825 -1.625 9.0625 C-4.78615776 7.69266497 -5.6177092 7.0734362 -7.625 4.0625 C-7.625 3.0725 -7.625 2.0825 -7.625 1.0625 C-4.98041621 -0.25979189 -2.94738699 -0.03427194 0 0 Z " fill="#15335C" transform="translate(404.625,187.9375)"/>
<path d="M0 0 C0.66666667 2.66666667 1.33333333 5.33333333 2 8 C2 7.01 2 6.02 2 5 C2.66 5 3.32 5 4 5 C4.66 4.34 5.32 3.68 6 3 C5.45144652 7.571279 4.58255197 11.67435795 3 16 C0.24671902 13.62216643 -0.96944911 11.48801839 -2 8 C-2.07646165 5.6679198 -2.09143299 3.33154122 -2 1 C-1.34 0.67 -0.68 0.34 0 0 Z " fill="#879DB5" transform="translate(151,207)"/>
<path d="M0 0 C2.97 0 5.94 0 9 0 C9.33 1.32 9.66 2.64 10 4 C8.375 6.25 8.375 6.25 6 8 C3.25 8.25 3.25 8.25 1 8 C1 4 1 4 2 3 C1.34 2.01 0.68 1.02 0 0 Z " fill="#13325B" transform="translate(402,210)"/>
<path d="M0 0 C2.31 0.33 4.62 0.66 7 1 C6.67 2.65 6.34 4.3 6 6 C4.68 5.34 3.36 4.68 2 4 C2 3.34 2 2.68 2 2 C1.34 1.34 0.68 0.68 0 0 Z M0 6 C4.43588415 6.49287602 5.91902825 7.91902825 9 11 C11.64184541 11.79681318 11.64184541 11.79681318 14 12 C14 12.66 14 13.32 14 14 C9.2460133 12.85248597 4.62107093 11.61737483 0 10 C0 8.68 0 7.36 0 6 Z " fill="#475C80" transform="translate(369,152)"/>
<path d="M0 0 C2 1 2 1 2.81640625 2.85546875 C4.2138821 7.22349536 5.41438004 11.43216431 6 16 C5.01 16 4.02 16 3 16 C2.13395466 14.23494565 1.28251358 12.46271926 0.4375 10.6875 C-0.03816406 9.70136719 -0.51382813 8.71523437 -1.00390625 7.69921875 C-2 5 -2 5 -1 2 C-0.67 1.34 -0.34 0.68 0 0 Z " fill="#869AAA" transform="translate(134,168)"/>
<path d="M0 0 C1.875 0.25 1.875 0.25 4 1 C5.375 2.8125 5.375 2.8125 6 5 C5.125 7.25 5.125 7.25 4 9 C5.32 9.66 6.64 10.32 8 11 C4.7 10.67 1.4 10.34 -2 10 C-1.01 9.67 -0.02 9.34 1 9 C1 8.34 1 7.68 1 7 C-0.32 6.34 -1.64 5.68 -3 5 C-2.67 4.01 -2.34 3.02 -2 2 C-1.34 1.67 -0.68 1.34 0 1 C0 0.67 0 0.34 0 0 Z " fill="#3C5A80" transform="translate(281,205)"/>
<path d="M0 0 C4.75 0.75 4.75 0.75 7 3 C5.68 3.33 4.36 3.66 3 4 C3.33 4.66 3.66 5.32 4 6 C7.19902639 6.08886184 9.92677456 5.91058531 13 5 C13.33 5.66 13.66 6.32 14 7 C10.34742696 9.33764674 7.26419476 9.53302434 3 9 C0.5 6.75 0.5 6.75 -1 4 C-0.75 1.6875 -0.75 1.6875 0 0 Z " fill="#6DAC6E" transform="translate(155,164)"/>
<path d="M0 0 C0.66 0.33 1.32 0.66 2 1 C1.3125 2.9375 1.3125 2.9375 0 5 C-2.625 5.75 -2.625 5.75 -5 6 C-4.34 6.33 -3.68 6.66 -3 7 C-3 7.66 -3 8.32 -3 9 C-3.66 9 -4.32 9 -5 9 C-5 10.32 -5 11.64 -5 13 C-4.01 13.33 -3.02 13.66 -2 14 C-2.99 14.33 -3.98 14.66 -5 15 C-9.10344828 8.72413793 -9.10344828 8.72413793 -8.6875 5.8125 C-6.10707655 3.04093407 -3.41891891 1.64840733 0 0 Z " fill="#455C7C" transform="translate(408,205)"/>
<path d="M0 0 C-1.32 0.33 -2.64 0.66 -4 1 C-4 1.66 -4 2.32 -4 3 C-3.34 3 -2.68 3 -2 3 C-1.67 4.32 -1.34 5.64 -1 7 C0.65 7.33 2.3 7.66 4 8 C1.63554179 9.48873294 0.26095932 10.00636486 -2.5625 9.9375 C-5 9 -5 9 -6.875 6.625 C-8 4 -8 4 -7 1 C-4.05697101 -0.96201933 -3.48011144 -1.16003715 0 0 Z " fill="#4B6485" transform="translate(227,171)"/>
<path d="M0 0 C1.9375 0.375 1.9375 0.375 4 1 C4.33 1.66 4.66 2.32 5 3 C3.5625 5 3.5625 5 1 7 C-2.02824418 7.35442445 -4.96485939 7.23347235 -8 7 C-8 6.34 -8 5.68 -8 5 C-5.69 5 -3.38 5 -1 5 C-0.67 3.35 -0.34 1.7 0 0 Z " fill="#183258" transform="translate(413,189)"/>
<path d="M0 0 C-0.99 0.495 -0.99 0.495 -2 1 C-2 1.66 -2 2.32 -2 3 C-0.68 2.67 0.64 2.34 2 2 C2.33 2.66 2.66 3.32 3 4 C1.20994059 4.36220266 -0.58212057 4.71452469 -2.375 5.0625 C-3.87160156 5.35833984 -3.87160156 5.35833984 -5.3984375 5.66015625 C-8 6 -8 6 -10 5 C-9.67 3.68 -9.34 2.36 -9 1 C-5.92677456 0.08941469 -3.19902639 -0.08886184 0 0 Z " fill="#889CAE" transform="translate(172,201)"/>
<path d="M0 0 C0.66 0 1.32 0 2 0 C2 1.98 2 3.96 2 6 C3.98 6 5.96 6 8 6 C8 6.66 8 7.32 8 8 C6.35 8 4.7 8 3 8 C2.67 9.32 2.34 10.64 2 12 C2.66 12.33 3.32 12.66 4 13 C3.01 13.33 2.02 13.66 1 14 C0 13 0 13 -0.09765625 10.05859375 C-0.08605469 8.86363281 -0.07445312 7.66867188 -0.0625 6.4375 C-0.05347656 5.23996094 -0.04445313 4.04242188 -0.03515625 2.80859375 C-0.02355469 1.88175781 -0.01195312 0.95492187 0 0 Z " fill="#44587C" transform="translate(348,165)"/>
<path d="M0 0 C1.32 0.66 2.64 1.32 4 2 C2.35 2.66 0.7 3.32 -1 4 C-0.62875 4.763125 -0.2575 5.52625 0.125 6.3125 C0.41375 7.199375 0.7025 8.08625 1 9 C0.01 10.485 0.01 10.485 -1 12 C-2.65 10.68 -4.3 9.36 -6 8 C-4.55746343 4.63408134 -2.66735273 2.48952921 0 0 Z " fill="#5A6D89" transform="translate(220,203)"/>
<path d="M0 0 C2.64 0 5.28 0 8 0 C8.33 0.66 8.66 1.32 9 2 C9.99 2.66 10.98 3.32 12 4 C7.23692563 4.95261487 2.8333472 5.08333357 -2 5 C-1.34 3.35 -0.68 1.7 0 0 Z " fill="#9CABBF" transform="translate(173,192)"/>
<path d="M0 0 C1.98 0 3.96 0 6 0 C6 1.32 6 2.64 6 4 C3.11788698 4.96070434 1.30149956 5.10581883 -1.6875 5.0625 C-2.89986328 5.04896484 -2.89986328 5.04896484 -4.13671875 5.03515625 C-5.05904297 5.01775391 -5.05904297 5.01775391 -6 5 C-5.67 4.01 -5.34 3.02 -5 2 C-3.35 2 -1.7 2 0 2 C0 1.34 0 0.68 0 0 Z " fill="#99A7B6" transform="translate(187,182)"/>
<path d="M0 0 C3.12270126 2.51830747 3.94523098 3.7261549 4.75 7.75 C4.8325 8.8225 4.915 9.895 5 11 C4.01 10.67 3.02 10.34 2 10 C2.309375 10.8971875 2.309375 10.8971875 2.625 11.8125 C3 14 3 14 1 17 C0.83069605 15.10440036 0.66467136 13.20850769 0.5 11.3125 C0.4071875 10.25675781 0.314375 9.20101562 0.21875 8.11328125 C0.0276585 5.39363975 -0.04043935 2.72460144 0 0 Z " fill="#4F6F8C" transform="translate(151,202)"/>
<path d="M0 0 C0 0.99 0 1.98 0 3 C-5.37305699 3.96891192 -5.37305699 3.96891192 -8 4 C-10 2.5625 -10 2.5625 -11 1 C-6.87831311 -0.62950412 -4.29299643 -1.26264601 0 0 Z " fill="#8D9CAF" transform="translate(199,206)"/>
<path d="M0 0 C1.65 0 3.3 0 5 0 C5.33 0.99 5.66 1.98 6 3 C6.99 3 7.98 3 9 3 C10.56858296 3.30342192 12.13113523 3.63910382 13.6875 4 C14.49574219 4.185625 15.30398438 4.37125 16.13671875 4.5625 C17.05904297 4.7790625 17.05904297 4.7790625 18 5 C18 5.33 18 5.66 18 6 C6.1807041 6.68850267 6.1807041 6.68850267 2.25 4.125 C1.5075 3.42375 0.765 2.7225 0 2 C0 1.34 0 0.68 0 0 Z " fill="#709F71" transform="translate(443,179)"/>
<path d="M0 0 C-0.33 1.32 -0.66 2.64 -1 4 C-2.98 4 -4.96 4 -7 4 C-7 3.34 -7 2.68 -7 2 C-9.64 2 -12.28 2 -15 2 C-15 1.67 -15 1.34 -15 1 C-10.03926578 -0.32286246 -5.08888488 -0.08893197 0 0 Z " fill="#B3C2D8" transform="translate(196,153)"/>
<path d="M0 0 C0.97591583 3.38317487 0.85856655 5.5657338 0 9 C-0.33 9 -0.66 9 -1 9 C-1.33 6.69 -1.66 4.38 -2 2 C-6.62 2 -11.24 2 -16 2 C-11.58316198 -2.41683802 -5.67113822 -0.80310236 0 0 Z " fill="#4E5F7C" transform="translate(322,151)"/>
<path d="M0 0 C1.65 0.33 3.3 0.66 5 1 C5.33 2.98 5.66 4.96 6 7 C3.69 7.33 1.38 7.66 -1 8 C-1 4.88742431 -0.82638376 2.89234315 0 0 Z " fill="#16315E" transform="translate(286,207)"/>
<path d="M0 0 C0.66 0 1.32 0 2 0 C2 4.62 2 9.24 2 14 C1.34 14 0.68 14 0 14 C-0.94238698 11.17283905 -1.13465647 9.36823877 -1.125 6.4375 C-1.12757813 5.65246094 -1.13015625 4.86742187 -1.1328125 4.05859375 C-1 2 -1 2 0 0 Z " fill="#516A86" transform="translate(210,187)"/>
<path d="M0 0 C-1.32 0.99 -2.64 1.98 -4 3 C-3.67 3.66 -3.34 4.32 -3 5 C-4.65 5 -6.3 5 -8 5 C-8 4.34 -8 3.68 -8 3 C-9.32 3.33 -10.64 3.66 -12 4 C-12 3.34 -12 2.68 -12 2 C-13.32 1.67 -14.64 1.34 -16 1 C-10.65097076 0.40801257 -5.39115154 -0.14187241 0 0 Z " fill="#9BAAC0" transform="translate(187,183)"/>
<path d="M0 0 C1.32 0.66 2.64 1.32 4 2 C4.25 4.3125 4.25 4.3125 4 7 C2 8.8125 2 8.8125 0 10 C0 7.69 0 5.38 0 3 C-0.99 2.67 -1.98 2.34 -3 2 C-2.01 1.34 -1.02 0.68 0 0 Z " fill="#70A571" transform="translate(475,150)"/>
<path d="M0 0 C2.68563983 4.8341517 3.38572221 8.61108031 2 14 C1.67 14 1.34 14 1 14 C0.04738513 9.23692563 -0.08333357 4.8333472 0 0 Z M3 0 C3.99 0.495 3.99 0.495 5 1 C5 2.98 5 4.96 5 7 C4.34 7 3.68 7 3 7 C3 4.69 3 2.38 3 0 Z " fill="#8396AA" transform="translate(207,180)"/>
<path d="M0 0 C2.64 0 5.28 0 8 0 C8 0.99 8 1.98 8 3 C6.35 3 4.7 3 3 3 C3 3.66 3 4.32 3 5 C1.35 4.67 -0.3 4.34 -2 4 C-1.34 2.68 -0.68 1.36 0 0 Z " fill="#859BA8" transform="translate(159,178)"/>
<path d="M0 0 C6.875 0.875 6.875 0.875 8 2 C9.99958364 2.04080783 12.00045254 2.04254356 14 2 C14 2.33 14 2.66 14 3 C10.32612505 3.85298376 6.9552607 4.10789471 3.1875 4.0625 C1.72376953 4.04896484 1.72376953 4.04896484 0.23046875 4.03515625 C-0.87361328 4.01775391 -0.87361328 4.01775391 -2 4 C-1.34 2.68 -0.68 1.36 0 0 Z " fill="#8B9EB0" transform="translate(175,176)"/>
<path d="M0 0 C0.99 0.33 1.98 0.66 3 1 C0.36 3.64 -2.28 6.28 -5 9 C-6.32 8.34 -7.64 7.68 -9 7 C-8.01 6.67 -7.02 6.34 -6 6 C-6 5.34 -6 4.68 -6 4 C-4.68 4 -3.36 4 -2 4 C-2 3.01 -2 2.02 -2 1 C-1.34 0.67 -0.68 0.34 0 0 Z " fill="#75B079" transform="translate(460,160)"/>
<path d="M0 0 C0.33 0.99 0.66 1.98 1 3 C1.99 3.33 2.98 3.66 4 4 C4.33 4.33 4.66 4.66 5 5 C5.33 4.01 5.66 3.02 6 2 C6 3.65 6 5.3 6 7 C5.01 7 4.02 7 3 7 C3 10.3 3 13.6 3 17 C2.67 17 2.34 17 2 17 C1.34 11.39 0.68 5.78 0 0 Z " fill="#859BAF" transform="translate(202,154)"/>
<path d="M0 0 C4.12751449 0.60698743 7.3321148 2.03810791 11 4 C11 5.65 11 7.3 11 9 C10.67 7.68 10.34 6.36 10 5 C9.34 5.66 8.68 6.32 8 7 C5.875 7.625 5.875 7.625 4 8 C4 6.68 4 5.36 4 4 C2.08333079 1.74934898 2.08333079 1.74934898 0 0 Z " fill="#4F6486" transform="translate(381,156)"/>
<path d="M0 0 C1.65 0.33 3.3 0.66 5 1 C4.67 1.99 4.34 2.98 4 4 C0.37 4 -3.26 4 -7 4 C-7 3.34 -7 2.68 -7 2 C-4.69 2 -2.38 2 0 2 C0 1.34 0 0.68 0 0 Z " fill="#627990" transform="translate(205,218)"/>
<path d="M0 0 C2.32590854 3.63423209 2.16265833 6.77088331 2 11 C2.66 11.33 3.32 11.66 4 12 C2.68 12.33 1.36 12.66 0 13 C-1.32630565 8.85529486 -1.98384711 3.96769422 0 0 Z " fill="#63798D" transform="translate(156,215)"/>
<path d="M0 0 C0.66 0 1.32 0 2 0 C2 1.65 2 3.3 2 5 C2.66 5 3.32 5 4 5 C4 5.66 4 6.32 4 7 C6.31 7 8.62 7 11 7 C11.33 6.34 11.66 5.68 12 5 C12.33 5.99 12.66 6.98 13 8 C12 9 12 9 9.93359375 9.09765625 C9.10988281 9.08605469 8.28617187 9.07445312 7.4375 9.0625 C6.61121094 9.05347656 5.78492188 9.04445312 4.93359375 9.03515625 C4.29550781 9.02355469 3.65742188 9.01195312 3 9 C0 3.375 0 3.375 0 0 Z " fill="#48627C" transform="translate(299,161)"/>
<path d="M0 0 C1.65 0 3.3 0 5 0 C5.66 1.32 6.32 2.64 7 4 C6.01 5.485 6.01 5.485 5 7 C4.01 6.67 3.02 6.34 2 6 C0.8125 2.9375 0.8125 2.9375 0 0 Z " fill="#609B5F" transform="translate(459,153)"/>
<path d="M0 0 C0.79921875 0.00902344 1.5984375 0.01804688 2.421875 0.02734375 C3.02515625 0.03894531 3.6284375 0.05054688 4.25 0.0625 C3.26 0.5575 3.26 0.5575 2.25 1.0625 C2.25 1.7225 2.25 2.3825 2.25 3.0625 C-1.71 3.0625 -5.67 3.0625 -9.75 3.0625 C-8.75 1.0625 -8.75 1.0625 -6.984375 0.44140625 C-4.60849677 0.03850382 -2.40820483 -0.03541478 0 0 Z " fill="#677E93" transform="translate(192.75,141.9375)"/>
<path d="M0 0 C2.64 0 5.28 0 8 0 C8 3.99904969 6.27413033 5.80200422 4 9 C2.68 8.67 1.36 8.34 0 8 C0.99 7.34 1.98 6.68 3 6 C3 4.68 3 3.36 3 2 C2.01 1.34 1.02 0.68 0 0 Z " fill="#576F8C" transform="translate(233,179)"/>
<path d="M0 0 C0.33 0 0.66 0 1 0 C1.33 3.96 1.66 7.92 2 12 C-2 10 -2 10 -4 8 C-3.625 5.875 -3.625 5.875 -3 4 C-3 4.99 -3 5.98 -3 7 C-2.34 6.67 -1.68 6.34 -1 6 C-0.34227572 2.97065509 -0.34227572 2.97065509 0 0 Z " fill="#8393A2" transform="translate(149,171)"/>
<path d="M0 0 C0 1.32 0 2.64 0 4 C-2.31 4 -4.62 4 -7 4 C-7.33 2.68 -7.66 1.36 -8 0 C-4.71303767 -0.79953138 -3.28976808 -1.09658936 0 0 Z " fill="#8397AE" transform="translate(200,173)"/>
<path d="M0 0 C0.66 0 1.32 0 2 0 C2 1.32 2 2.64 2 4 C3.32 3.67 4.64 3.34 6 3 C6 3.99 6 4.98 6 6 C6.99 6.33 7.98 6.66 9 7 C8.67 7.66 8.34 8.32 8 9 C6.35 8.67 4.7 8.34 3 8 C3 7.34 3 6.68 3 6 C2.34 6 1.68 6 1 6 C0.67 4.02 0.34 2.04 0 0 Z " fill="#17325D" transform="translate(300,160)"/>
<path d="M0 0 C0 0.99 0 1.98 0 3 C-2.64 3.33 -5.28 3.66 -8 4 C-7.34 3.34 -6.68 2.68 -6 2 C-7.65 1.67 -9.3 1.34 -11 1 C-11 0.67 -11 0.34 -11 0 C-6.98195309 -0.84098656 -3.98196457 -1.05404945 0 0 Z " fill="#92A3B3" transform="translate(199,190)"/>
<path d="M0 0 C0.99 0.33 1.98 0.66 3 1 C3 1.66 3 2.32 3 3 C4.65 3.33 6.3 3.66 8 4 C7.01 4.66 6.02 5.32 5 6 C4.01 7.485 4.01 7.485 3 9 C2.34 7.02 1.68 5.04 1 3 C0.01 3.495 0.01 3.495 -1 4 C-0.67 2.68 -0.34 1.36 0 0 Z M8 3 C10 4 10 4 10 4 Z " fill="#13315E" transform="translate(344,154)"/>
<path d="M0 0 C0.66 0 1.32 0 2 0 C2.44539877 8.7595092 2.44539877 8.7595092 -1 13 C-1.66 13 -2.32 13 -3 13 C-3 12.01 -3 11.02 -3 10 C-2.01 10 -1.02 10 0 10 C0 6.7 0 3.4 0 0 Z " fill="#52637A" transform="translate(247,178)"/>
<path d="M0 0 C1.4540625 0.0309375 1.4540625 0.0309375 2.9375 0.0625 C2.6075 1.0525 2.2775 2.0425 1.9375 3.0625 C0.6175 3.0625 -0.7025 3.0625 -2.0625 3.0625 C-2.3925 4.3825 -2.7225 5.7025 -3.0625 7.0625 C-3.0625 6.4025 -3.0625 5.7425 -3.0625 5.0625 C-3.7225 5.0625 -4.3825 5.0625 -5.0625 5.0625 C-3.9375 0.08035714 -3.9375 0.08035714 0 0 Z " fill="#708599" transform="translate(136.0625,164.9375)"/>
<path d="M0 0 C2 2 2 2 2.125 4.625 C2.08375 5.40875 2.0425 6.1925 2 7 C-0.31 6.34 -2.62 5.68 -5 5 C-3.35 3.35 -1.7 1.7 0 0 Z " fill="#132E56" transform="translate(319,153)"/>
<path d="M0 0 C1.3271261 3.9813783 1.06915913 7.85045227 1 12 C-1.60334924 9.28817788 -1.99456691 8.10866187 -2.1875 4.25 C-2.125625 3.1775 -2.06375 2.105 -2 1 C-1.34 0.67 -0.68 0.34 0 0 Z " fill="#748AA4" transform="translate(151,207)"/>
<path d="M0 0 C1.9451 2.91765 2.45276317 4.62537285 3 8 C1.68 8 0.36 8 -1 8 C-1.66 6.02 -2.32 4.04 -3 2 C-2.01 2 -1.02 2 0 2 C0 1.34 0 0.68 0 0 Z " fill="#97A8B7" transform="translate(140,182)"/>
<path d="M0 0 C1.98 0.495 1.98 0.495 4 1 C4.6875 2.8125 4.6875 2.8125 5 5 C3.5625 6.75 3.5625 6.75 2 8 C1.01 6.68 0.02 5.36 -1 4 C-0.34 4 0.32 4 1 4 C0.67 2.68 0.34 1.36 0 0 Z " fill="#314971" transform="translate(377,154)"/>
<path d="M0 0 C0.33 0.66 0.66 1.32 1 2 C2.32 2 3.64 2 5 2 C5 4.31 5 6.62 5 9 C3.0625 8.4375 3.0625 8.4375 1 7 C0.25 3.375 0.25 3.375 0 0 Z " fill="#56728F" transform="translate(202,150)"/>
<path d="M0 0 C0.33 0.66 0.66 1.32 1 2 C-2.3 2 -5.6 2 -9 2 C-9.33 1.34 -9.66 0.68 -10 0 C-6.33291043 -0.94296589 -3.64653273 -1.11421833 0 0 Z " fill="#657C91" transform="translate(179,210)"/>
<path d="M0 0 C-2.71182212 2.60334924 -3.89133813 2.99456691 -7.75 3.1875 C-8.8225 3.125625 -9.895 3.06375 -11 3 C-11 2.34 -11 1.68 -11 1 C-3.57142857 -1.42857143 -3.57142857 -1.42857143 0 0 Z " fill="#7BAA7D" transform="translate(169,170)"/>
<path d="M0 0 C0.33 0.66 0.66 1.32 1 2 C-2.44615385 6.8 -2.44615385 6.8 -5.25 7.8125 C-6.11625 7.9053125 -6.11625 7.9053125 -7 8 C-5.08864614 4.46399535 -3.37357234 2.21027154 0 0 Z " fill="#7FAE7D" transform="translate(447,153)"/>
<path d="M0 0 C-0.99 0.33 -1.98 0.66 -3 1 C-3.73323796 3.01508358 -3.73323796 3.01508358 -4 5 C-5.32 5 -6.64 5 -8 5 C-8 3.68 -8 2.36 -8 1 C-5.29120665 -0.35439668 -2.99066732 -0.06501451 0 0 Z " fill="#16355E" transform="translate(356,151)"/>
<path d="M0 0 C0.99 0.66 1.98 1.32 3 2 C2.67 2.99 2.34 3.98 2 5 C0.35 5 -1.3 5 -3 5 C-3 3.68 -3 2.36 -3 1 C-2.01 0.67 -1.02 0.34 0 0 Z " fill="#27426B" transform="translate(406,213)"/>
<path d="M0 0 C1.32 0.33 2.64 0.66 4 1 C4 1.66 4 2.32 4 3 C4.66 3.33 5.32 3.66 6 4 C4.68 4.33 3.36 4.66 2 5 C2 4.34 2 3.68 2 3 C0.68 3.33 -0.64 3.66 -2 4 C-2 4.66 -2 5.32 -2 6 C-2.66 5.67 -3.32 5.34 -4 5 C-3.67 4.34 -3.34 3.68 -3 3 C-2.34 3 -1.68 3 -1 3 C-0.67 2.01 -0.34 1.02 0 0 Z " fill="#6F8295" transform="translate(275,201)"/>
<path d="M0 0 C0.33 0 0.66 0 1 0 C3.29612756 9.41002278 3.29612756 9.41002278 3 14 C2.731875 13.443125 2.46375 12.88625 2.1875 12.3125 C1.02423014 9.90706997 1.02423014 9.90706997 -0.75 7.5625 C-2 5 -2 5 -1.1875 2.1875 C-0.795625 1.465625 -0.40375 0.74375 0 0 Z " fill="#8A9EB1" transform="translate(153,196)"/>
<path d="M0 0 C5.75 -0.125 5.75 -0.125 8 1 C8 1.66 8 2.32 8 3 C5.36 3 2.72 3 0 3 C0 2.01 0 1.02 0 0 Z " fill="#8093A5" transform="translate(161,195)"/>
<path d="M0 0 C0 1.98 0 3.96 0 6 C-0.99 6.33 -1.98 6.66 -3 7 C-3 6.01 -3 5.02 -3 4 C-3.99 3.67 -4.98 3.34 -6 3 C-2.25 0 -2.25 0 0 0 Z " fill="#3E963D" transform="translate(467,172)"/>
<path d="M0 0 C-0.99 0.66 -1.98 1.32 -3 2 C-3 2.99 -3 3.98 -3 5 C-4.65 5 -6.3 5 -8 5 C-7.34 4.34 -6.68 3.68 -6 3 C-7.65 2.67 -9.3 2.34 -11 2 C-11 1.67 -11 1.34 -11 1 C-7.26562152 0.12132271 -3.83225427 -0.08912219 0 0 Z " fill="#96A4B7" transform="translate(194,198)"/>
<path d="M0 0 C0.33 1.32 0.66 2.64 1 4 C-0.98 4.99 -0.98 4.99 -3 6 C-3.99 5.34 -4.98 4.68 -6 4 C-5.67 3.01 -5.34 2.02 -5 1 C-4.01 1.33 -3.02 1.66 -2 2 C-1.34 1.34 -0.68 0.68 0 0 Z " fill="#6DA76C" transform="translate(456,170)"/>
<path d="M0 0 C1.98 0 3.96 0 6 0 C5.01 0.66 4.02 1.32 3 2 C2.27617533 4.05925139 2.27617533 4.05925139 2 6 C2.99 6.33 3.98 6.66 5 7 C3.35 7 1.7 7 0 7 C0 4.69 0 2.38 0 0 Z " fill="#223453" transform="translate(251,172)"/>
<path d="M0 0 C1.23556641 0.01740234 1.23556641 0.01740234 2.49609375 0.03515625 C3.32238281 0.04417969 4.14867187 0.05320313 5 0.0625 C5.63808594 0.07410156 6.27617187 0.08570313 6.93359375 0.09765625 C6.93359375 0.42765625 6.93359375 0.75765625 6.93359375 1.09765625 C4.62359375 1.42765625 2.31359375 1.75765625 -0.06640625 2.09765625 C1.25359375 2.75765625 2.57359375 3.41765625 3.93359375 4.09765625 C1.62359375 4.09765625 -0.68640625 4.09765625 -3.06640625 4.09765625 C-3.06640625 0.14491523 -3.06640625 0.14491523 0 0 Z " fill="#9DADB9" transform="translate(177.06640625,159.90234375)"/>
<path d="M0 0 C-1.32 0.33 -2.64 0.66 -4 1 C-4 1.66 -4 2.32 -4 3 C-2.35 3 -0.7 3 1 3 C1 3.33 1 3.66 1 4 C-3.46839215 4.21278058 -6.82262526 3.59138085 -11 2 C-11 1.67 -11 1.34 -11 1 C-7.26562152 0.12132271 -3.83225427 -0.08912219 0 0 Z " fill="#A8C0D3" transform="translate(167,145)"/>
<path d="M0 0 C0 0.99 0 1.98 0 3 C-3.3 3 -6.6 3 -10 3 C-7.02931146 0.02931146 -4.09966187 0 0 0 Z " fill="#5A6F88" transform="translate(186,222)"/>
<path d="M0 0 C1.98 0 3.96 0 6 0 C3.6875 2.5 3.6875 2.5 1 5 C0.01 5 -0.98 5 -2 5 C-1.34 3.35 -0.68 1.7 0 0 Z " fill="#5C6D8B" transform="translate(412,210)"/>
<path d="M0 0 C0.66 0.33 1.32 0.66 2 1 C1.5 2.9375 1.5 2.9375 0 5 C-2.69658452 5.68790422 -5.2017019 5.81946464 -8 6 C-5.63404067 3.38499232 -3.13950774 1.61000397 0 0 Z " fill="#5D7197" transform="translate(408,205)"/>
<path d="M0 0 C0.33 0 0.66 0 1 0 C1 2.97 1 5.94 1 9 C-3 10 -3 10 -5 9 C-5 8.34 -5 7.68 -5 7 C-3.35 7 -1.7 7 0 7 C0 4.69 0 2.38 0 0 Z " fill="#63748E" transform="translate(338,164)"/>
<path d="M0 0 C0 0.66 0 1.32 0 2 C0.66 2 1.32 2 2 2 C1 4 1 4 -1.375 4.8125 C-4 5 -4 5 -5.8125 3.5625 C-6.204375 3.046875 -6.59625 2.53125 -7 2 C-2.25 0 -2.25 0 0 0 Z " fill="#8FA3B5" transform="translate(142,162)"/>
<path d="M0 0 C1.32 0 2.64 0 4 0 C4.33 1.32 4.66 2.64 5 4 C3.35 4.33 1.7 4.66 0 5 C-0.5625 3.0625 -0.5625 3.0625 -1 1 C-0.67 0.67 -0.34 0.34 0 0 Z " fill="#439A3F" transform="translate(159,158)"/>
<path d="M0 0 C2 1.375 2 1.375 4 3 C4 3.66 4 4.32 4 5 C3.01 5.33 2.02 5.66 1 6 C0.01 5.34 -0.98 4.68 -2 4 C-1.34 2.68 -0.68 1.36 0 0 Z " fill="#0F305C" transform="translate(412,205)"/>
<path d="M0 0 C1.22589844 0.15275391 1.22589844 0.15275391 2.4765625 0.30859375 C3.41628906 0.43427734 3.41628906 0.43427734 4.375 0.5625 C4.045 1.2225 3.715 1.8825 3.375 2.5625 C0.075 2.5625 -3.225 2.5625 -6.625 2.5625 C-6.625 1.9025 -6.625 1.2425 -6.625 0.5625 C-4.10446405 -0.69776798 -2.7707902 -0.35624445 0 0 Z " fill="#6B8097" transform="translate(176.625,201.4375)"/>
<path d="M0 0 C-0.66 2.31 -1.32 4.62 -2 7 C-3.5 5.6875 -3.5 5.6875 -5 4 C-5 3.01 -5 2.02 -5 1 C-3 0 -3 0 0 0 Z " fill="#4E6182" transform="translate(402,188)"/>
<path d="M0 0 C-1.32 0.33 -2.64 0.66 -4 1 C-4.33 2.98 -4.66 4.96 -5 7 C-5.99 6.01 -6.98 5.02 -8 4 C-7 1 -7 1 -5.125 -0.25 C-3 -1 -3 -1 0 0 Z " fill="#7B879E" transform="translate(227,171)"/>
<path d="M0 0 C0.33 0 0.66 0 1 0 C0.75 3.375 0.75 3.375 0 7 C-2.0625 8.4375 -2.0625 8.4375 -4 9 C-4 8.01 -4 7.02 -4 6 C-3.34 6 -2.68 6 -2 6 C-2 4.68 -2 3.36 -2 2 C-1.34 2 -0.68 2 0 2 C0 1.34 0 0.68 0 0 Z " fill="#768FA1" transform="translate(146,155)"/>
<path d="M0 0 C2.97 0 5.94 0 9 0 C9 0.99 9 1.98 9 3 C2.25 2.25 2.25 2.25 0 0 Z " fill="#9AA7B4" transform="translate(188,158)"/>
<path d="M0 0 C-5.41538462 3.07692308 -5.41538462 3.07692308 -8.375 2.6875 C-9.179375 2.3471875 -9.179375 2.3471875 -10 2 C-9.67 1.34 -9.34 0.68 -9 0 C-5.65506316 -0.99444068 -3.31044803 -1.10348268 0 0 Z " fill="#6F849C" transform="translate(191,184)"/>
<path d="M0 0 C0.99 0 1.98 0 3 0 C3.33 0.99 3.66 1.98 4 3 C3.01 4.485 3.01 4.485 2 6 C1.01 5.67 0.02 5.34 -1 5 C-0.67 3.35 -0.34 1.7 0 0 Z " fill="#419441" transform="translate(472,153)"/>
<path d="M0 0 C0.33 0 0.66 0 1 0 C1 1.98 1 3.96 1 6 C1.99 6.33 2.98 6.66 4 7 C3.38125 7.103125 2.7625 7.20625 2.125 7.3125 C-0.36526484 7.87525373 -0.36526484 7.87525373 -2 11 C-2.24042276 6.91281305 -1.42258812 3.82320557 0 0 Z " fill="#A8B6C7" transform="translate(203,143)"/>
<path d="M0 0 C1.4540625 0.0309375 1.4540625 0.0309375 2.9375 0.0625 C3.2675 0.7225 3.5975 1.3825 3.9375 2.0625 C1.0625 2.6875 1.0625 2.6875 -2.0625 3.0625 C-2.7225 2.4025 -3.3825 1.7425 -4.0625 1.0625 C-3.0625 0.0625 -3.0625 0.0625 0 0 Z " fill="#738BA2" transform="translate(192.0625,205.9375)"/>
<path d="M0 0 C0.33 0 0.66 0 1 0 C1 2.31 1 4.62 1 7 C0.67 7 0.34 7 0 7 C0 4.69 0 2.38 0 0 Z M-1 7 C-0.34 7.66 0.32 8.32 1 9 C-2.28976808 10.09658936 -3.71303767 9.79953138 -7 9 C-7 8.67 -7 8.34 -7 8 C-4.125 7.375 -4.125 7.375 -1 7 Z " fill="#253E66" transform="translate(383,186)"/>
<path d="M0 0 C1.32 0 2.64 0 4 0 C4 0.66 4 1.32 4 2 C5.32 1.67 6.64 1.34 8 1 C8 1.66 8 2.32 8 3 C5.36 3 2.72 3 0 3 C0 2.01 0 1.02 0 0 Z " fill="#74859A" transform="translate(171,185)"/>
<path d="M0 0 C0.66 0 1.32 0 2 0 C2 4.29 2 8.58 2 13 C1.34 12.67 0.68 12.34 0 12 C0 8 0 4 0 0 Z " fill="#16304F" transform="translate(370,180)"/>
<path d="M0 0 C1.70884005 1.62339805 3.37446717 3.29319053 5 5 C5 5.66 5 6.32 5 7 C3.68 6.67 2.36 6.34 1 6 C1 5.34 1 4.68 1 4 C0.01 3.67 -0.98 3.34 -2 3 C-1.34 2.67 -0.68 2.34 0 2 C0 1.34 0 0.68 0 0 Z " fill="#18335B" transform="translate(277,207)"/>
<path d="M0 0 C1.37562854 1.28965176 2.70766393 2.62689293 4 4 C4 4.66 4 5.32 4 6 C3.01 6.33 2.02 6.66 1 7 C0.67 4.69 0.34 2.38 0 0 Z " fill="#597086" transform="translate(151,202)"/>
<path d="M0 0 C2.64 0 5.28 0 8 0 C4.81237635 2.12508244 2.73487777 2.5020163 -1 3 C-0.67 2.01 -0.34 1.02 0 0 Z " fill="#697F96" transform="translate(188,191)"/>
<path d="M0 0 C1.98 0 3.96 0 6 0 C6 0.99 6 1.98 6 3 C4.02 3 2.04 3 0 3 C0 2.01 0 1.02 0 0 Z " fill="#788EA4" transform="translate(161,186)"/>
<path d="M0 0 C1.65 0 3.3 0 5 0 C5.33 1.65 5.66 3.3 6 5 C4 4 2 3 0 2 C0 1.34 0 0.68 0 0 Z " fill="#74A875" transform="translate(443,179)"/>
<path d="M0 0 C1.98 0.99 1.98 0.99 4 2 C4 3.32 4 4.64 4 6 C2.68 5.67 1.36 5.34 0 5 C0 3.35 0 1.7 0 0 Z " fill="#132A7A" transform="translate(332,172)"/>
<path d="M0 0 C2.475 0.495 2.475 0.495 5 1 C5 1.99 5 2.98 5 4 C3.35 4.66 1.7 5.32 0 6 C0 5.01 0 4.02 0 3 C0.66 2.67 1.32 2.34 2 2 C1.34 1.34 0.68 0.68 0 0 Z " fill="#365068" transform="translate(206,170)"/>
<path d="M0 0 C2.97 0.33 5.94 0.66 9 1 C8.67 1.66 8.34 2.32 8 3 C6.35 3 4.7 3 3 3 C3 2.34 3 1.68 3 1 C2.01 0.67 1.02 0.34 0 0 Z " fill="#6F889F" transform="translate(184,159)"/>
<path d="M0 0 C1.60080151 4.00200378 0.29279692 7.04556236 -1 11 C-1.33 11 -1.66 11 -2 11 C-2.25 3.375 -2.25 3.375 0 0 Z " fill="#93BD97" transform="translate(155,157)"/>
<path d="M0 0 C1.65 0 3.3 0 5 0 C5 0.99 5 1.98 5 3 C3.02 3 1.04 3 -1 3 C-0.67 2.01 -0.34 1.02 0 0 Z " fill="#77869D" transform="translate(191,153)"/>
<path d="M0 0 C0.99 0.33 1.98 0.66 3 1 C2.34 1 1.68 1 1 1 C1 1.99 1 2.98 1 4 C-1.31 4.33 -3.62 4.66 -6 5 C-2.25 1.125 -2.25 1.125 0 0 Z " fill="#697B96" transform="translate(347,151)"/>
<path d="M0 0 C1.98 0.66 3.96 1.32 6 2 C6 2.99 6 3.98 6 5 C4.68 5.33 3.36 5.66 2 6 C2.33 4.68 2.66 3.36 3 2 C1.68 1.67 0.36 1.34 -1 1 C-0.67 0.67 -0.34 0.34 0 0 Z " fill="#697E92" transform="translate(204,150)"/>
</svg>
